<svg width="46" height="45" viewBox="0 0 46 45" fill="none" xmlns="http://www.w3.org/2000/svg">
<path d="M11.8634 34.3916C12.9972 33.5654 14.465 33.3545 15.7834 33.8291C18.1125 34.6729 20.7228 35.1562 23.5002 35.1562C34.4601 35.1562 41.7814 28.0811 41.7814 21.0938C41.7814 14.1064 34.4601 7.03125 23.5002 7.03125C12.5402 7.03125 5.21891 14.1064 5.21891 21.0938C5.21891 23.9062 6.30876 26.6133 8.35661 28.9336C9.11247 29.7861 9.48161 30.9111 9.39372 32.0537C9.27067 33.6445 8.89274 35.1035 8.40056 36.3955C9.8947 35.7012 11.134 34.9277 11.8634 34.4004V34.3916ZM2.86345 37.96C3.02165 37.7227 3.17106 37.4854 3.31169 37.248C4.19059 35.7891 5.02556 33.873 5.19255 31.7197C2.55583 28.7227 1.00016 25.0576 1.00016 21.0938C1.00016 10.9951 11.0724 2.8125 23.5002 2.8125C35.9279 2.8125 46.0002 10.9951 46.0002 21.0938C46.0002 31.1924 35.9279 39.375 23.5002 39.375C20.2394 39.375 17.1457 38.8125 14.3507 37.8018C13.3049 38.5664 11.5998 39.6123 9.57829 40.4912C8.25114 41.0713 6.73942 41.5986 5.17497 41.9062C5.10466 41.9238 5.03434 41.9326 4.96403 41.9502C4.57731 42.0205 4.19938 42.082 3.80388 42.1172C3.7863 42.1172 3.75993 42.126 3.74235 42.126C3.29411 42.1699 2.84587 42.1963 2.39763 42.1963C1.82634 42.1963 1.31657 41.8535 1.09684 41.3262C0.877118 40.7988 1.00016 40.2012 1.39567 39.7969C1.75602 39.4277 2.08122 39.0322 2.38884 38.6104C2.53825 38.4082 2.67888 38.2061 2.81071 38.0039L2.83708 37.96H2.86345Z" fill="#0F6201"/>
</svg>
