<svg width="21" height="21" viewBox="0 0 21 21" fill="none" xmlns="http://www.w3.org/2000/svg">
<path d="M5.06948 16.0494C5.59858 15.6639 6.28354 15.5654 6.89877 15.7869C7.98569 16.1807 9.20385 16.4062 10.4999 16.4062C15.6146 16.4062 19.0312 13.1045 19.0312 9.84375C19.0312 6.58301 15.6146 3.28125 10.4999 3.28125C5.3853 3.28125 1.9687 6.58301 1.9687 9.84375C1.9687 11.1562 2.47729 12.4195 3.43295 13.5023C3.78569 13.9002 3.95795 14.4252 3.91694 14.9584C3.85952 15.7008 3.68315 16.3816 3.45346 16.9846C4.15073 16.6605 4.72905 16.2996 5.06948 16.0535V16.0494ZM0.869478 17.7146C0.943306 17.6039 1.01303 17.4932 1.07866 17.3824C1.48881 16.7016 1.87846 15.8074 1.95639 14.8025C0.725923 13.4039 -5.32093e-05 11.6936 -5.32093e-05 9.84375C-5.32093e-05 5.13105 4.70034 1.3125 10.4999 1.3125C16.2996 1.3125 20.9999 5.13105 20.9999 9.84375C20.9999 14.5564 16.2996 18.375 10.4999 18.375C8.97827 18.375 7.53452 18.1125 6.23022 17.6408C5.74213 17.9977 4.94643 18.4857 4.00307 18.8959C3.38374 19.1666 2.67827 19.4127 1.94819 19.5562C1.91538 19.5645 1.88256 19.5686 1.84975 19.5768C1.66928 19.6096 1.49292 19.6383 1.30835 19.6547C1.30014 19.6547 1.28784 19.6588 1.27963 19.6588C1.07045 19.6793 0.861275 19.6916 0.652095 19.6916C0.385494 19.6916 0.147603 19.5316 0.045064 19.2855C-0.0574751 19.0395 -5.32176e-05 18.7605 0.184517 18.5719C0.352681 18.3996 0.504439 18.215 0.647994 18.0182C0.71772 17.9238 0.783345 17.8295 0.844869 17.7352L0.857173 17.7146H0.869478Z" fill="#0F6201"/>
</svg>
