<svg width="21" height="21" viewBox="0 0 21 21" fill="none" xmlns="http://www.w3.org/2000/svg">
<path d="M18.2224 8.68299L11.6599 2.12049C11.3523 1.81292 10.935 1.64014 10.5 1.64014C10.065 1.64014 9.64775 1.81292 9.34009 2.12049L2.77759 8.68299C2.62462 8.83502 2.50336 9.0159 2.42084 9.21516C2.33833 9.41441 2.29619 9.62807 2.29688 9.84373V17.7187C2.29688 17.9798 2.40059 18.2302 2.5852 18.4148C2.76981 18.5994 3.02019 18.7031 3.28126 18.7031H8.53126C8.79233 18.7031 9.04271 18.5994 9.22732 18.4148C9.41192 18.2302 9.51563 17.9798 9.51563 17.7187V13.4531H11.4844V17.7187C11.4844 17.9798 11.5881 18.2302 11.7727 18.4148C11.9573 18.5994 12.2077 18.7031 12.4688 18.7031H17.7188C17.9798 18.7031 18.2302 18.5994 18.4148 18.4148C18.5994 18.2302 18.7031 17.9798 18.7031 17.7187V9.84373C18.7038 9.62807 18.6617 9.41441 18.5792 9.21516C18.4967 9.0159 18.3754 8.83502 18.2224 8.68299ZM16.7344 16.7344H13.4531V12.4687C13.4531 12.2077 13.3494 11.9573 13.1648 11.7727C12.9802 11.5881 12.7298 11.4844 12.4688 11.4844H8.53126C8.27018 11.4844 8.01981 11.5881 7.8352 11.7727C7.65059 11.9573 7.54688 12.2077 7.54688 12.4687V16.7344H4.26563V9.97908L10.5 3.74471L16.7344 9.97908V16.7344Z" fill="#0F6201"/>
</svg>
