<svg width="45" height="45" viewBox="0 0 45 45" fill="none" xmlns="http://www.w3.org/2000/svg">
<path d="M39.0481 18.6064L24.9856 4.54395C24.3263 3.88487 23.4322 3.51462 22.5 3.51462C21.5678 3.51462 20.6737 3.88487 20.0145 4.54395L5.95197 18.6064C5.62419 18.9322 5.36435 19.3198 5.18752 19.7468C5.0107 20.1738 4.92041 20.6316 4.92189 21.0938V37.9688C4.92189 38.5282 5.14413 39.0647 5.53971 39.4603C5.9353 39.8559 6.47183 40.0781 7.03127 40.0781H18.2813C18.8407 40.0781 19.3772 39.8559 19.7728 39.4603C20.1684 39.0647 20.3906 38.5282 20.3906 37.9688V28.8281H24.6094V37.9688C24.6094 38.5282 24.8316 39.0647 25.2272 39.4603C25.6228 39.8559 26.1593 40.0781 26.7188 40.0781H37.9688C38.5282 40.0781 39.0647 39.8559 39.4603 39.4603C39.8559 39.0647 40.0781 38.5282 40.0781 37.9688V21.0938C40.0796 20.6316 39.9893 20.1738 39.8125 19.7468C39.6357 19.3198 39.3759 18.9322 39.0481 18.6064ZM35.8594 35.8594H28.8281V26.7188C28.8281 26.1593 28.6059 25.6228 28.2103 25.2272C27.8147 24.8316 27.2782 24.6094 26.7188 24.6094H18.2813C17.7218 24.6094 17.1853 24.8316 16.7897 25.2272C16.3941 25.6228 16.1719 26.1593 16.1719 26.7188V35.8594H9.14064V21.3838L22.5 8.02441L35.8594 21.3838V35.8594Z" fill="#0F6201"/>
</svg>
