<svg width="21" height="21" viewBox="0 0 21 21" fill="none" xmlns="http://www.w3.org/2000/svg">
<path d="M10.5007 3.96287C11.5006 3.06832 12.8051 2.59054 14.1462 2.62764C15.4874 2.66474 16.7634 3.21391 17.7124 4.16237C18.6603 5.11016 19.2098 6.38465 19.2482 7.72457C19.2866 9.06449 18.811 10.3684 17.9189 11.3689L10.4989 18.7994L3.08065 11.3689C2.1875 10.3678 1.71145 9.06286 1.75024 7.72185C1.78904 6.38085 2.33972 5.10558 3.28925 4.15784C4.23877 3.21011 5.51508 2.66184 6.85616 2.62558C8.19723 2.58932 9.5013 3.06783 10.5007 3.96287ZM16.4734 5.39874C15.8411 4.76749 14.9913 4.40197 14.0981 4.37708C13.205 4.35219 12.3362 4.66981 11.6697 5.26487L10.5015 6.31312L9.33253 5.26574C8.66899 4.6724 7.80431 4.35416 6.91443 4.3758C6.02456 4.39743 5.17636 4.75731 4.54244 5.3822C3.90852 6.00709 3.53652 6.85004 3.50212 7.73951C3.46772 8.62898 3.77351 9.49814 4.35728 10.1701L10.4998 16.3222L16.6423 10.171C17.2236 9.50197 17.5294 8.63733 17.4981 7.7516C17.4668 6.86586 17.1005 6.025 16.4734 5.39874Z" fill="#0F6201"/>
</svg>
