<svg width="45" height="45" viewBox="0 0 45 45" fill="none" xmlns="http://www.w3.org/2000/svg">
<path d="M22.5017 8.49187C24.6444 6.57498 27.4397 5.55117 30.3136 5.63067C33.1875 5.71017 35.922 6.88695 37.9554 8.91937C39.9867 10.9503 41.1642 13.6814 41.2464 16.5527C41.3287 19.4239 40.3096 22.2179 38.3979 24.3619L22.4979 40.2844L6.60167 24.3619C4.68778 22.2168 3.66768 19.4204 3.7508 16.5468C3.83393 13.6733 5.01397 10.9405 7.04866 8.90968C9.08336 6.87882 11.8183 5.70394 14.692 5.62625C17.5658 5.54855 20.3602 6.57393 22.5017 8.49187ZM35.3004 11.5687C33.9454 10.2161 32.1244 9.4328 30.2106 9.37946C28.2967 9.32612 26.4349 10.0068 25.0067 11.2819L22.5035 13.5281L19.9985 11.2837C18.5767 10.0123 16.7238 9.33036 14.8169 9.37672C12.9101 9.42308 11.0925 10.1942 9.73409 11.5333C8.37569 12.8723 7.57853 14.6787 7.50481 16.5847C7.4311 18.4907 8.08637 20.3532 9.3373 21.7931L22.4998 34.9762L35.6623 21.795C36.908 20.3614 37.5634 18.5086 37.4962 16.6106C37.429 14.7126 36.6443 12.9107 35.3004 11.5687Z" fill="#0F6201"/>
</svg>
