<svg width="350" height="350" viewBox="0 0 350 350" fill="none" xmlns="http://www.w3.org/2000/svg">
<rect width="350" height="350" rx="100" fill="#004E08"/>
<mask id="path-2-outside-1_5_11" maskUnits="userSpaceOnUse" x="40" y="58" width="256" height="221" fill="black">
<rect fill="white" x="40" y="58" width="256" height="221"/>
<path d="M132.5 68.5C154.167 68.5 171.333 75.25 184 88.75C196.833 102.25 203.25 120.583 203.25 143.75C203.25 157.75 199.833 172.167 193 187C186.167 201.667 177.083 215 165.75 227C154.417 239 140.583 248.833 124.25 256.5C107.917 264.167 91 268 73.5 268C70.1667 268 66.9167 267.833 63.75 267.5C60.5833 267.333 58.3333 267.167 57 267L54.75 266.5C52.0833 265.833 50.75 264.5 50.75 262.5L51.5 260C53.1667 256 55.5833 250.5 58.75 243.5C61.75 236.5 68.8333 222.75 80 202.25C91.3333 181.75 103.417 161.917 116.25 142.75C128.25 124.75 137.75 112.25 144.75 105.25C147.083 102.75 149 101.5 150.5 101.5C151.667 101.5 152.25 102.5 152.25 104.5C152.25 105.833 152.167 106.667 152 107C150.5 113.5 145.167 125.75 136 143.75C105.667 197.417 86.6667 234.75 79 255.75C78.8333 256.25 78.75 256.833 78.75 257.5C78.75 259.167 79.4167 260.083 80.75 260.25C81.75 260.417 83.25 260.5 85.25 260.5C99.9167 260.5 115 253.417 130.5 239.25C146.167 225.083 159.083 207.417 169.25 186.25C179.417 164.917 184.5 144.667 184.5 125.5C184.5 111.5 180.5 99.8333 172.5 90.5C164.5 81 153.667 76.25 140 76.25C133 76.25 127.167 78.1667 122.5 82C118 85.8333 115.75 91.4167 115.75 98.75C115.75 104.583 117.5 110.583 121 116.75C121.333 117.75 121.5 118.75 121.5 119.75C121.5 121.083 121 121.75 120 121.75C119.5 121.75 118.75 121.5 117.75 121C113.917 119 109.667 114.833 105 108.5C100.333 102.167 98 95.5833 98 88.75C98 83.4167 100 79.1667 104 76C108 72.8333 112.333 70.8333 117 70C121.667 69 126.833 68.5 132.5 68.5ZM285.176 146.25C285.009 150.917 272.426 171 247.426 206.5C246.926 207.167 246.676 207.667 246.676 208C246.676 209.167 248.842 209.75 253.176 209.75C261.342 209.75 270.426 203.833 280.426 192C280.592 191.833 280.842 191.75 281.176 191.75C282.009 191.75 282.426 192.583 282.426 194.25C282.426 196.083 280.426 199.25 276.426 203.75C269.259 211.75 260.509 215.75 250.176 215.75C248.509 215.75 247.009 215.667 245.676 215.5C244.342 215.167 243.342 214.917 242.676 214.75C242.009 214.417 241.592 214.25 241.426 214.25L240.176 215C230.842 226.333 222.259 236.25 214.426 244.75C206.592 253.083 201.009 258.667 197.676 261.5L192.926 265.5C190.259 267.5 188.176 268.5 186.676 268.5C184.676 268.5 183.676 266.917 183.676 263.75C183.676 252.75 188.009 235.167 196.676 211C205.509 186.667 211.842 171.417 215.676 165.25C221.009 156.75 227.592 152.5 235.426 152.5C236.592 152.5 237.176 153.083 237.176 154.25C237.176 155.083 236.509 156.833 235.176 159.5C220.676 189.667 211.676 215.417 208.176 236.75C208.176 238.583 208.509 239.5 209.176 239.5C209.842 239.5 210.842 238.917 212.176 237.75C219.342 232.583 227.426 223.583 236.426 210.75C236.759 210.25 236.926 209.667 236.926 209C236.259 207.5 235.926 205.5 235.926 203C235.926 193 240.926 181.917 250.926 169.75C261.092 157.417 271.342 149.333 281.676 145.5C282.676 145.167 283.342 145 283.676 145C284.676 145 285.176 145.417 285.176 146.25Z"/>
</mask>
<path d="M132.5 68.5C154.167 68.5 171.333 75.25 184 88.75C196.833 102.25 203.25 120.583 203.25 143.75C203.25 157.75 199.833 172.167 193 187C186.167 201.667 177.083 215 165.75 227C154.417 239 140.583 248.833 124.25 256.5C107.917 264.167 91 268 73.5 268C70.1667 268 66.9167 267.833 63.75 267.5C60.5833 267.333 58.3333 267.167 57 267L54.75 266.5C52.0833 265.833 50.75 264.5 50.75 262.5L51.5 260C53.1667 256 55.5833 250.5 58.75 243.5C61.75 236.5 68.8333 222.75 80 202.25C91.3333 181.75 103.417 161.917 116.25 142.75C128.25 124.75 137.75 112.25 144.75 105.25C147.083 102.75 149 101.5 150.5 101.5C151.667 101.5 152.25 102.5 152.25 104.5C152.25 105.833 152.167 106.667 152 107C150.5 113.5 145.167 125.75 136 143.75C105.667 197.417 86.6667 234.75 79 255.75C78.8333 256.25 78.75 256.833 78.75 257.5C78.75 259.167 79.4167 260.083 80.75 260.25C81.75 260.417 83.25 260.5 85.25 260.5C99.9167 260.5 115 253.417 130.5 239.25C146.167 225.083 159.083 207.417 169.25 186.25C179.417 164.917 184.5 144.667 184.5 125.5C184.5 111.5 180.5 99.8333 172.5 90.5C164.5 81 153.667 76.25 140 76.25C133 76.25 127.167 78.1667 122.5 82C118 85.8333 115.75 91.4167 115.75 98.75C115.75 104.583 117.5 110.583 121 116.75C121.333 117.75 121.5 118.75 121.5 119.75C121.5 121.083 121 121.75 120 121.75C119.5 121.75 118.75 121.5 117.75 121C113.917 119 109.667 114.833 105 108.5C100.333 102.167 98 95.5833 98 88.75C98 83.4167 100 79.1667 104 76C108 72.8333 112.333 70.8333 117 70C121.667 69 126.833 68.5 132.5 68.5ZM285.176 146.25C285.009 150.917 272.426 171 247.426 206.5C246.926 207.167 246.676 207.667 246.676 208C246.676 209.167 248.842 209.75 253.176 209.75C261.342 209.75 270.426 203.833 280.426 192C280.592 191.833 280.842 191.75 281.176 191.75C282.009 191.75 282.426 192.583 282.426 194.25C282.426 196.083 280.426 199.25 276.426 203.75C269.259 211.75 260.509 215.75 250.176 215.75C248.509 215.75 247.009 215.667 245.676 215.5C244.342 215.167 243.342 214.917 242.676 214.75C242.009 214.417 241.592 214.25 241.426 214.25L240.176 215C230.842 226.333 222.259 236.25 214.426 244.75C206.592 253.083 201.009 258.667 197.676 261.5L192.926 265.5C190.259 267.5 188.176 268.5 186.676 268.5C184.676 268.5 183.676 266.917 183.676 263.75C183.676 252.75 188.009 235.167 196.676 211C205.509 186.667 211.842 171.417 215.676 165.25C221.009 156.75 227.592 152.5 235.426 152.5C236.592 152.5 237.176 153.083 237.176 154.25C237.176 155.083 236.509 156.833 235.176 159.5C220.676 189.667 211.676 215.417 208.176 236.75C208.176 238.583 208.509 239.5 209.176 239.5C209.842 239.5 210.842 238.917 212.176 237.75C219.342 232.583 227.426 223.583 236.426 210.75C236.759 210.25 236.926 209.667 236.926 209C236.259 207.5 235.926 205.5 235.926 203C235.926 193 240.926 181.917 250.926 169.75C261.092 157.417 271.342 149.333 281.676 145.5C282.676 145.167 283.342 145 283.676 145C284.676 145 285.176 145.417 285.176 146.25Z" fill="#004E08"/>
<path d="M184 88.75L176.707 95.5924L176.73 95.6162L176.752 95.6398L184 88.75ZM193 187L202.064 191.223L202.074 191.204L202.083 191.184L193 187ZM165.75 227L158.48 220.134L158.48 220.134L165.75 227ZM124.25 256.5L120.001 247.448L120.001 247.448L124.25 256.5ZM63.75 267.5L64.7968 257.555L64.5368 257.528L64.2756 257.514L63.75 267.5ZM57 267L54.8307 276.762L55.2914 276.864L55.7597 276.923L57 267ZM54.75 266.5L52.3246 276.201L52.4523 276.233L52.5807 276.262L54.75 266.5ZM50.75 262.5L41.1717 259.627L40.75 261.032V262.5H50.75ZM51.5 260L42.2692 256.154L42.0703 256.631L41.9217 257.127L51.5 260ZM58.75 243.5L67.8611 247.622L67.9022 247.531L67.9415 247.439L58.75 243.5ZM80 202.25L71.2484 197.412L71.2333 197.439L71.2183 197.466L80 202.25ZM116.25 142.75L124.559 148.314L124.565 148.305L124.571 148.297L116.25 142.75ZM144.75 105.25L151.821 112.321L151.943 112.199L152.061 112.073L144.75 105.25ZM152 107L143.056 102.528L142.524 103.592L142.256 104.751L152 107ZM136 143.75L144.706 148.671L144.812 148.482L144.911 148.288L136 143.75ZM79 255.75L69.6064 252.321L69.5579 252.453L69.5132 252.588L79 255.75ZM80.75 260.25L82.394 250.386L82.1928 250.353L81.9903 250.327L80.75 260.25ZM130.5 239.25L123.793 231.833L123.773 231.851L123.754 231.869L130.5 239.25ZM169.25 186.25L178.264 190.58L178.271 190.566L178.277 190.552L169.25 186.25ZM172.5 90.5L164.851 96.9413L164.879 96.9747L164.907 97.0079L172.5 90.5ZM122.5 82L116.153 74.2727L116.083 74.3295L116.015 74.3876L122.5 82ZM121 116.75L130.487 113.588L130.178 112.662L129.697 111.814L121 116.75ZM117.75 121L113.124 129.866L113.201 129.906L113.278 129.944L117.75 121ZM105 108.5L113.051 102.568L113.051 102.568L105 108.5ZM117 70L118.758 79.8443L118.927 79.814L119.095 79.778L117 70ZM132.5 68.5V78.5C151.917 78.5 166.256 84.453 176.707 95.5924L184 88.75L191.293 81.9076C176.411 66.047 156.416 58.5 132.5 58.5V68.5ZM184 88.75L176.752 95.6398C187.413 106.854 193.25 122.492 193.25 143.75H203.25H213.25C213.25 118.675 206.254 97.6455 191.248 81.8601L184 88.75ZM203.25 143.75H193.25C193.25 156.084 190.246 169.078 183.917 182.816L193 187L202.083 191.184C209.42 175.256 213.25 159.416 213.25 143.75H203.25ZM193 187L183.936 182.777C177.564 196.452 169.092 208.897 158.48 220.134L165.75 227L173.02 233.866C185.074 221.103 194.769 206.881 202.064 191.223L193 187ZM165.75 227L158.48 220.134C148.085 231.141 135.305 240.264 120.001 247.448L124.25 256.5L128.499 265.552C145.862 257.403 160.749 246.859 173.02 233.866L165.75 227ZM124.25 256.5L120.001 247.448C104.955 254.51 89.485 258 73.5 258V268V278C92.515 278 110.879 273.823 128.499 265.552L124.25 256.5ZM73.5 268V258C70.5001 258 67.6 257.85 64.7968 257.555L63.75 267.5L62.7032 277.445C66.2333 277.817 69.8332 278 73.5 278V268ZM63.75 267.5L64.2756 257.514C61.1151 257.347 59.1828 257.195 58.2403 257.077L57 267L55.7597 276.923C57.4838 277.138 60.0516 277.319 63.2244 277.486L63.75 267.5ZM57 267L59.1693 257.238L56.9193 256.738L54.75 266.5L52.5807 276.262L54.8307 276.762L57 267ZM54.75 266.5L57.1754 256.799C56.8445 256.716 57.749 256.857 58.8211 257.929C59.3961 258.504 59.9233 259.257 60.2848 260.161C60.6416 261.053 60.75 261.873 60.75 262.5H50.75H40.75C40.75 265.974 42.0143 269.406 44.6789 272.071C47.0843 274.476 49.9888 275.617 52.3246 276.201L54.75 266.5ZM50.75 262.5L60.3283 265.373L61.0783 262.873L51.5 260L41.9217 257.127L41.1717 259.627L50.75 262.5ZM51.5 260L60.7308 263.846C62.3404 259.983 64.7095 254.588 67.8611 247.622L58.75 243.5L49.6389 239.378C46.4572 246.412 43.9929 252.017 42.2692 256.154L51.5 260ZM58.75 243.5L67.9415 247.439C70.7246 240.945 77.5737 227.609 88.7817 207.034L80 202.25L71.2183 197.466C60.093 217.891 52.7754 232.055 49.5585 239.561L58.75 243.5ZM80 202.25L88.7516 207.088C99.95 186.832 111.886 167.241 124.559 148.314L116.25 142.75L107.941 137.186C94.9473 156.592 82.7167 176.668 71.2484 197.412L80 202.25ZM116.25 142.75L124.571 148.297C136.53 130.358 145.571 118.571 151.821 112.321L144.75 105.25L137.679 98.1789C129.929 105.929 119.97 119.142 107.93 137.203L116.25 142.75ZM144.75 105.25L152.061 112.073C152.467 111.638 152.792 111.325 153.038 111.108C153.288 110.887 153.408 110.808 153.4 110.814C153.399 110.814 153.172 110.965 152.733 111.126C152.286 111.289 151.517 111.5 150.5 111.5V101.5V91.5C147.041 91.5 144.264 92.8946 142.475 94.0614C140.596 95.2868 138.914 96.8465 137.439 98.4268L144.75 105.25ZM150.5 101.5V111.5C149.329 111.5 147.82 111.236 146.304 110.37C144.784 109.501 143.78 108.326 143.175 107.289C142.14 105.516 142.25 104.145 142.25 104.5H152.25H162.25C162.25 102.855 162.068 99.9845 160.45 97.2113C158.349 93.6097 154.606 91.5 150.5 91.5V101.5ZM152.25 104.5H142.25C142.25 105.004 142.232 105.178 142.237 105.13C142.24 105.104 142.261 104.89 142.331 104.561C142.368 104.389 142.43 104.133 142.529 103.82C142.626 103.516 142.789 103.061 143.056 102.528L152 107L160.944 111.472C161.917 109.526 162.089 107.614 162.138 107.12C162.226 106.239 162.25 105.33 162.25 104.5H152.25ZM152 107L142.256 104.751C141.079 109.853 136.356 121.014 127.089 139.212L136 143.75L144.911 148.288C153.977 130.486 159.921 117.147 161.744 109.249L152 107ZM136 143.75L127.294 138.829C97.004 192.42 77.5965 230.435 69.6064 252.321L79 255.75L88.3936 259.179C95.7368 239.065 114.329 202.413 144.706 148.671L136 143.75ZM79 255.75L69.5132 252.588C68.9303 254.336 68.75 256.03 68.75 257.5H78.75H88.75C88.75 257.637 88.7364 258.164 88.4868 258.912L79 255.75ZM78.75 257.5H68.75C68.75 259.498 69.1251 262.518 71.1626 265.319C73.4225 268.426 76.6526 269.816 79.5097 270.173L80.75 260.25L81.9903 250.327C83.5141 250.518 85.7442 251.365 87.3374 253.556C88.7083 255.441 88.75 257.169 88.75 257.5H78.75ZM80.75 260.25L79.106 270.114C80.9482 270.421 83.1206 270.5 85.25 270.5V260.5V250.5C84.3787 250.5 83.6962 250.482 83.1797 250.453C82.9243 250.439 82.7298 250.423 82.5888 250.409C82.4446 250.395 82.3851 250.385 82.394 250.386L80.75 260.25ZM85.25 260.5V270.5C103.31 270.5 120.694 261.76 137.246 246.631L130.5 239.25L123.754 231.869C109.306 245.073 96.5237 250.5 85.25 250.5V260.5ZM130.5 239.25L137.207 246.667C153.938 231.539 167.599 212.785 178.264 190.58L169.25 186.25L160.236 181.92C150.568 202.049 138.396 218.628 123.793 231.833L130.5 239.25ZM169.25 186.25L178.277 190.552C188.938 168.181 194.5 146.461 194.5 125.5H184.5H174.5C174.5 142.873 169.895 161.652 160.223 181.948L169.25 186.25ZM184.5 125.5H194.5C194.5 109.465 189.861 95.3886 180.093 83.9921L172.5 90.5L164.907 97.0079C171.139 104.278 174.5 113.535 174.5 125.5H184.5ZM172.5 90.5L180.149 84.0586C170.043 72.0582 156.282 66.25 140 66.25V76.25V86.25C151.052 86.25 158.957 89.9418 164.851 96.9413L172.5 90.5ZM140 76.25V66.25C131.072 66.25 122.886 68.7416 116.153 74.2727L122.5 82L128.847 89.7273C131.447 87.5918 134.928 86.25 140 86.25V76.25ZM122.5 82L116.015 74.3876C108.761 80.5671 105.75 89.253 105.75 98.75H115.75H125.75C125.75 93.5804 127.239 91.0995 128.985 89.6124L122.5 82ZM115.75 98.75H105.75C105.75 106.651 108.132 114.337 112.303 121.686L121 116.75L129.697 111.814C126.868 106.829 125.75 102.516 125.75 98.75H115.75ZM121 116.75L111.513 119.912C111.521 119.936 111.517 119.929 111.511 119.894C111.505 119.858 111.5 119.808 111.5 119.75H121.5H131.5C131.5 117.618 131.142 115.552 130.487 113.588L121 116.75ZM121.5 119.75H111.5C111.5 119.455 111.505 117.411 113.125 115.25C115.151 112.548 118.06 111.75 120 111.75V121.75V131.75C122.94 131.75 126.599 130.618 129.125 127.25C131.245 124.423 131.5 121.378 131.5 119.75H121.5ZM120 121.75V111.75C120.684 111.75 121.216 111.833 121.539 111.897C121.872 111.964 122.108 112.037 122.225 112.076C122.44 112.147 122.457 112.173 122.222 112.056L117.75 121L113.278 129.944C114.356 130.483 116.952 131.75 120 131.75V121.75ZM117.75 121L122.376 112.134C120.589 111.202 117.438 108.522 113.051 102.568L105 108.5L96.9494 114.432C101.895 121.144 107.245 126.798 113.124 129.866L117.75 121ZM105 108.5L113.051 102.568C109.451 97.6831 108 93.1358 108 88.75H98H88C88 98.0309 91.2155 106.65 96.9494 114.432L105 108.5ZM98 88.75H108C108 86.3116 108.726 85.0128 110.207 83.8405L104 76L97.793 68.1595C91.2738 73.3205 88 80.5217 88 88.75H98ZM104 76L110.207 83.8405C113.014 81.6186 115.84 80.3654 118.758 79.8443L117 70L115.242 60.1557C108.827 61.3013 102.986 64.048 97.793 68.1595L104 76ZM117 70L119.095 79.778C122.959 78.95 127.411 78.5 132.5 78.5V68.5V58.5C126.256 58.5 120.374 59.05 114.905 60.222L117 70ZM285.176 146.25L295.169 146.607L295.176 146.429V146.25H285.176ZM247.426 206.5L255.426 212.5L255.516 212.38L255.602 212.258L247.426 206.5ZM280.426 192L273.355 184.929L273.058 185.225L272.788 185.545L280.426 192ZM276.426 203.75L283.874 210.422L283.887 210.408L283.9 210.394L276.426 203.75ZM245.676 215.5L243.25 225.201L243.836 225.348L244.435 225.423L245.676 215.5ZM242.676 214.75L238.204 223.694L239.185 224.185L240.25 224.451L242.676 214.75ZM241.426 214.25V204.25H238.656L236.281 205.675L241.426 214.25ZM240.176 215L235.031 206.425L233.552 207.312L232.456 208.643L240.176 215ZM214.426 244.75L221.712 251.599L221.746 251.563L221.779 251.527L214.426 244.75ZM197.676 261.5L204.117 269.149L204.135 269.134L204.152 269.119L197.676 261.5ZM192.926 265.5L198.926 273.5L199.151 273.331L199.367 273.149L192.926 265.5ZM196.676 211L187.276 207.588L187.269 207.606L187.263 207.624L196.676 211ZM215.676 165.25L207.205 159.935L207.194 159.953L207.183 159.971L215.676 165.25ZM235.176 159.5L226.232 155.028L226.197 155.098L226.163 155.168L235.176 159.5ZM208.176 236.75L198.308 235.131L198.176 235.935V236.75H208.176ZM212.176 237.75L206.328 229.638L205.945 229.914L205.591 230.224L212.176 237.75ZM236.426 210.75L244.613 216.492L244.681 216.395L244.746 216.297L236.426 210.75ZM236.926 209H246.926V206.878L246.064 204.939L236.926 209ZM250.926 169.75L243.209 163.389L243.205 163.395L243.2 163.4L250.926 169.75ZM281.676 145.5L278.514 136.013L278.355 136.066L278.198 136.124L281.676 145.5ZM285.176 146.25L275.182 145.893C275.223 144.762 275.511 144.316 275.195 145.139C274.966 145.737 274.54 146.689 273.833 148.061C272.426 150.793 270.224 154.58 267.139 159.503C260.991 169.316 251.716 183.04 239.25 200.742L247.426 206.5L255.602 212.258C268.136 194.46 277.653 180.392 284.087 170.122C287.294 165.003 289.832 160.676 291.612 157.22C292.499 155.499 293.279 153.838 293.867 152.306C294.369 150.999 295.087 148.905 295.169 146.607L285.176 146.25ZM247.426 206.5L239.426 200.5C238.973 201.104 238.408 201.925 237.919 202.903C237.511 203.719 236.676 205.568 236.676 208H246.676H256.676C256.676 209.134 256.469 210.031 256.301 210.592C256.128 211.168 255.933 211.595 255.808 211.847C255.568 212.325 255.379 212.562 255.426 212.5L247.426 206.5ZM246.676 208H236.676C236.676 211.908 238.683 214.836 240.799 216.545C242.616 218.013 244.54 218.656 245.701 218.969C248.091 219.612 250.785 219.75 253.176 219.75V209.75V199.75C251.233 199.75 250.677 199.596 250.901 199.656C250.978 199.677 252.09 199.956 253.365 200.986C254.069 201.555 254.93 202.44 255.611 203.723C256.317 205.053 256.676 206.528 256.676 208H246.676ZM253.176 209.75V219.75C266.055 219.75 277.721 210.693 288.064 198.455L280.426 192L272.788 185.545C263.13 196.974 256.63 199.75 253.176 199.75V209.75ZM280.426 192L287.497 199.071C285.127 201.441 282.384 201.75 281.176 201.75V191.75V181.75C279.301 181.75 276.058 182.225 273.355 184.929L280.426 192ZM281.176 191.75V201.75C279.634 201.75 277.839 201.336 276.176 200.227C274.575 199.159 273.658 197.825 273.169 196.847C272.7 195.908 272.541 195.143 272.484 194.8C272.451 194.605 272.438 194.46 272.432 194.377C272.429 194.333 272.427 194.301 272.426 194.28C272.426 194.27 272.426 194.262 272.426 194.257C272.426 194.255 272.426 194.253 272.426 194.252C272.426 194.251 272.426 194.251 272.426 194.25C272.426 194.25 272.426 194.25 272.426 194.25C272.426 194.251 272.426 194.249 272.426 194.25C272.426 194.251 272.426 194.249 272.426 194.25H282.426H292.426C292.426 192.906 292.311 190.409 291.058 187.903C290.36 186.508 289.183 184.861 287.27 183.586C285.293 182.268 283.134 181.75 281.176 181.75V191.75ZM282.426 194.25H272.426C272.426 192.987 272.745 192.213 272.766 192.161C272.811 192.049 272.761 192.2 272.471 192.66C271.882 193.592 270.779 195.051 268.952 197.106L276.426 203.75L283.9 210.394C286.073 207.949 287.969 205.574 289.381 203.34C290.534 201.515 292.426 198.193 292.426 194.25H282.426ZM276.426 203.75L268.977 197.078C263.623 203.055 257.541 205.75 250.176 205.75V215.75V225.75C263.477 225.75 274.895 220.445 283.874 210.422L276.426 203.75ZM250.176 215.75V205.75C248.83 205.75 247.754 205.682 246.916 205.577L245.676 215.5L244.435 225.423C246.264 225.651 248.188 225.75 250.176 225.75V215.75ZM245.676 215.5L248.101 205.799C246.768 205.465 245.768 205.215 245.101 205.049L242.676 214.75L240.25 224.451C240.917 224.618 241.917 224.868 243.25 225.201L245.676 215.5ZM242.676 214.75L247.148 205.806C246.705 205.584 246.155 205.321 245.577 205.09C245.291 204.976 244.86 204.813 244.345 204.666C243.982 204.562 242.865 204.25 241.426 204.25V214.25V224.25C240.663 224.25 240.06 224.16 239.711 224.097C239.337 224.029 239.041 223.951 238.85 223.896C238.481 223.791 238.227 223.691 238.149 223.66C237.988 223.595 237.98 223.582 238.204 223.694L242.676 214.75ZM241.426 214.25L236.281 205.675L235.031 206.425L240.176 215L245.321 223.575L246.571 222.825L241.426 214.25ZM240.176 215L232.456 208.643C223.211 219.869 214.752 229.64 207.072 237.973L214.426 244.75L221.779 251.527C229.767 242.86 238.474 232.798 247.895 221.357L240.176 215ZM214.426 244.75L207.14 237.901C199.282 246.26 194.051 251.457 191.199 253.881L197.676 261.5L204.152 269.119C207.967 265.877 213.903 259.907 221.712 251.599L214.426 244.75ZM197.676 261.5L191.234 253.851L186.484 257.851L192.926 265.5L199.367 273.149L204.117 269.149L197.676 261.5ZM192.926 265.5L186.926 257.5C186.435 257.868 186.026 258.149 185.695 258.358C185.361 258.569 185.144 258.683 185.036 258.735C184.922 258.79 184.991 258.745 185.222 258.681C185.449 258.617 185.955 258.5 186.676 258.5V268.5V278.5C189.515 278.5 191.958 277.597 193.691 276.765C195.517 275.888 197.278 274.736 198.926 273.5L192.926 265.5ZM186.676 268.5V258.5C187.511 258.5 188.73 258.673 190.031 259.359C191.36 260.061 192.296 261.047 192.881 261.973C193.869 263.537 193.676 264.603 193.676 263.75H183.676H173.676C173.676 266.063 173.983 269.505 175.971 272.652C178.448 276.574 182.525 278.5 186.676 278.5V268.5ZM183.676 263.75H193.676C193.676 254.652 197.43 238.52 206.089 214.376L196.676 211L187.263 207.624C178.588 231.813 173.676 250.848 173.676 263.75H183.676ZM196.676 211L206.076 214.412C215.015 189.786 221 175.627 224.169 170.529L215.676 165.25L207.183 159.971C202.685 167.206 196.003 183.547 187.276 207.588L196.676 211ZM215.676 165.25L224.146 170.565C228.235 164.049 232.006 162.5 235.426 162.5V152.5V142.5C223.179 142.5 213.783 149.451 207.205 159.935L215.676 165.25ZM235.426 152.5V162.5C234.468 162.5 231.912 162.254 229.667 160.009C227.422 157.763 227.176 155.208 227.176 154.25H237.176H247.176C247.176 152.125 246.638 148.695 243.809 145.866C240.981 143.038 237.551 142.5 235.426 142.5V152.5ZM237.176 154.25H227.176C227.176 153.711 227.228 153.297 227.265 153.056C227.305 152.804 227.347 152.629 227.368 152.548C227.406 152.4 227.414 152.41 227.331 152.628C227.254 152.828 227.13 153.13 226.941 153.547C226.754 153.959 226.52 154.451 226.232 155.028L235.176 159.5L244.12 163.972C244.86 162.493 245.521 161.059 246.021 159.747C246.382 158.8 247.176 156.656 247.176 154.25H237.176ZM235.176 159.5L226.163 155.168C211.45 185.778 202.022 212.491 198.308 235.131L208.176 236.75L218.044 238.369C221.329 218.343 229.902 193.555 244.189 163.832L235.176 159.5ZM208.176 236.75H198.176C198.176 237.994 198.252 240.097 199.028 242.23C199.436 243.353 200.266 245.128 201.981 246.7C203.915 248.472 206.459 249.5 209.176 249.5V239.5V229.5C211.559 229.5 213.812 230.413 215.496 231.957C216.96 233.299 217.582 234.731 217.824 235.395C218.266 236.611 218.176 237.34 218.176 236.75H208.176ZM209.176 239.5V249.5C212.147 249.5 214.417 248.311 215.464 247.7C216.722 246.967 217.839 246.083 218.761 245.276L212.176 237.75L205.591 230.224C205.18 230.584 205.13 230.575 205.387 230.425C205.529 230.342 205.888 230.143 206.435 229.952C206.964 229.767 207.919 229.5 209.176 229.5V239.5ZM212.176 237.75L218.024 245.862C226.542 239.721 235.388 229.646 244.613 216.492L236.426 210.75L228.238 205.008C219.464 217.52 212.143 225.446 206.328 229.638L212.176 237.75ZM236.426 210.75L244.746 216.297C246.293 213.977 246.926 211.417 246.926 209H236.926H226.926C226.926 207.917 227.225 206.523 228.105 205.203L236.426 210.75ZM236.926 209L246.064 204.939C246.143 205.116 246.099 205.085 246.04 204.731C245.982 204.382 245.926 203.821 245.926 203H235.926H225.926C225.926 206.238 226.335 209.792 227.788 213.061L236.926 209ZM235.926 203H245.926C245.926 196.319 249.325 187.447 258.651 176.1L250.926 169.75L243.2 163.4C232.527 176.387 225.926 189.681 225.926 203H235.926ZM250.926 169.75L258.642 176.111C268.161 164.564 277.056 157.88 285.154 154.876L281.676 145.5L278.198 136.124C265.629 140.787 254.024 150.27 243.209 163.389L250.926 169.75ZM281.676 145.5L284.838 154.987C285.208 154.863 285.36 154.824 285.351 154.826C285.344 154.828 285.218 154.86 285.007 154.895C284.897 154.913 284.735 154.938 284.53 154.958C284.331 154.978 284.038 155 283.676 155V145V135C282.218 135 280.975 135.305 280.5 135.424C279.825 135.592 279.143 135.803 278.514 136.013L281.676 145.5ZM283.676 145V155C283.033 155 280.69 154.904 278.399 152.995C275.759 150.794 275.176 147.903 275.176 146.25H285.176H295.176C295.176 143.764 294.343 140.247 291.203 137.63C288.412 135.304 285.318 135 283.676 135V145Z" fill="#FFF700" mask="url(#path-2-outside-1_5_11)"/>
</svg>
