<svg width="350" height="350" viewBox="0 0 350 350" fill="none" xmlns="http://www.w3.org/2000/svg">
<rect width="350" height="350" rx="100" fill="#004E08"/>
<mask id="path-2-outside-1_4_2" maskUnits="userSpaceOnUse" x="67" y="77" width="208" height="181" fill="black">
<rect fill="white" x="67" y="77" width="208" height="181"/>
<path d="M142.6 87.2C159.933 87.2 173.667 92.6 183.8 103.4C194.067 114.2 199.2 128.867 199.2 147.4C199.2 158.6 196.467 170.133 191 182C185.533 193.733 178.267 204.4 169.2 214C160.133 223.6 149.067 231.467 136 237.6C122.933 243.733 109.4 246.8 95.4 246.8C92.7333 246.8 90.1333 246.667 87.6 246.4C85.0667 246.267 83.2667 246.133 82.2 246L80.4 245.6C78.2667 245.067 77.2 244 77.2 242.4L77.8 240.4C79.1333 237.2 81.0667 232.8 83.6 227.2C86 221.6 91.6667 210.6 100.6 194.2C109.667 177.8 119.333 161.933 129.6 146.6C139.2 132.2 146.8 122.2 152.4 116.6C154.267 114.6 155.8 113.6 157 113.6C157.933 113.6 158.4 114.4 158.4 116C158.4 117.067 158.333 117.733 158.2 118C157 123.2 152.733 133 145.4 147.4C121.133 190.333 105.933 220.2 99.8 237C99.6667 237.4 99.6 237.867 99.6 238.4C99.6 239.733 100.133 240.467 101.2 240.6C102 240.733 103.2 240.8 104.8 240.8C116.533 240.8 128.6 235.133 141 223.8C153.533 212.467 163.867 198.333 172 181.4C180.133 164.333 184.2 148.133 184.2 132.8C184.2 121.6 181 112.267 174.6 104.8C168.2 97.2 159.533 93.4 148.6 93.4C143 93.4 138.333 94.9333 134.6 98C131 101.067 129.2 105.533 129.2 111.4C129.2 116.067 130.6 120.867 133.4 125.8C133.667 126.6 133.8 127.4 133.8 128.2C133.8 129.267 133.4 129.8 132.6 129.8C132.2 129.8 131.6 129.6 130.8 129.2C127.733 127.6 124.333 124.267 120.6 119.2C116.867 114.133 115 108.867 115 103.4C115 99.1333 116.6 95.7333 119.8 93.2C123 90.6667 126.467 89.0667 130.2 88.4C133.933 87.6 138.067 87.2 142.6 87.2ZM264.741 149.4C264.607 153.133 254.541 169.2 234.541 197.6C234.141 198.133 233.941 198.533 233.941 198.8C233.941 199.733 235.674 200.2 239.141 200.2C245.674 200.2 252.941 195.467 260.941 186C261.074 185.867 261.274 185.8 261.541 185.8C262.207 185.8 262.541 186.467 262.541 187.8C262.541 189.267 260.941 191.8 257.741 195.4C252.007 201.8 245.007 205 236.741 205C235.407 205 234.207 204.933 233.141 204.8C232.074 204.533 231.274 204.333 230.741 204.2C230.207 203.933 229.874 203.8 229.741 203.8L228.741 204.4C221.274 213.467 214.407 221.4 208.141 228.2C201.874 234.867 197.407 239.333 194.741 241.6L190.941 244.8C188.807 246.4 187.141 247.2 185.941 247.2C184.341 247.2 183.541 245.933 183.541 243.4C183.541 234.6 187.007 220.533 193.941 201.2C201.007 181.733 206.074 169.533 209.141 164.6C213.407 157.8 218.674 154.4 224.941 154.4C225.874 154.4 226.341 154.867 226.341 155.8C226.341 156.467 225.807 157.867 224.741 160C213.141 184.133 205.941 204.733 203.141 221.8C203.141 223.267 203.407 224 203.941 224C204.474 224 205.274 223.533 206.341 222.6C212.074 218.467 218.541 211.267 225.741 201C226.007 200.6 226.141 200.133 226.141 199.6C225.607 198.4 225.341 196.8 225.341 194.8C225.341 186.8 229.341 177.933 237.341 168.2C245.474 158.333 253.674 151.867 261.941 148.8C262.741 148.533 263.274 148.4 263.541 148.4C264.341 148.4 264.741 148.733 264.741 149.4Z"/>
</mask>
<path d="M142.6 87.2C159.933 87.2 173.667 92.6 183.8 103.4C194.067 114.2 199.2 128.867 199.2 147.4C199.2 158.6 196.467 170.133 191 182C185.533 193.733 178.267 204.4 169.2 214C160.133 223.6 149.067 231.467 136 237.6C122.933 243.733 109.4 246.8 95.4 246.8C92.7333 246.8 90.1333 246.667 87.6 246.4C85.0667 246.267 83.2667 246.133 82.2 246L80.4 245.6C78.2667 245.067 77.2 244 77.2 242.4L77.8 240.4C79.1333 237.2 81.0667 232.8 83.6 227.2C86 221.6 91.6667 210.6 100.6 194.2C109.667 177.8 119.333 161.933 129.6 146.6C139.2 132.2 146.8 122.2 152.4 116.6C154.267 114.6 155.8 113.6 157 113.6C157.933 113.6 158.4 114.4 158.4 116C158.4 117.067 158.333 117.733 158.2 118C157 123.2 152.733 133 145.4 147.4C121.133 190.333 105.933 220.2 99.8 237C99.6667 237.4 99.6 237.867 99.6 238.4C99.6 239.733 100.133 240.467 101.2 240.6C102 240.733 103.2 240.8 104.8 240.8C116.533 240.8 128.6 235.133 141 223.8C153.533 212.467 163.867 198.333 172 181.4C180.133 164.333 184.2 148.133 184.2 132.8C184.2 121.6 181 112.267 174.6 104.8C168.2 97.2 159.533 93.4 148.6 93.4C143 93.4 138.333 94.9333 134.6 98C131 101.067 129.2 105.533 129.2 111.4C129.2 116.067 130.6 120.867 133.4 125.8C133.667 126.6 133.8 127.4 133.8 128.2C133.8 129.267 133.4 129.8 132.6 129.8C132.2 129.8 131.6 129.6 130.8 129.2C127.733 127.6 124.333 124.267 120.6 119.2C116.867 114.133 115 108.867 115 103.4C115 99.1333 116.6 95.7333 119.8 93.2C123 90.6667 126.467 89.0667 130.2 88.4C133.933 87.6 138.067 87.2 142.6 87.2ZM264.741 149.4C264.607 153.133 254.541 169.2 234.541 197.6C234.141 198.133 233.941 198.533 233.941 198.8C233.941 199.733 235.674 200.2 239.141 200.2C245.674 200.2 252.941 195.467 260.941 186C261.074 185.867 261.274 185.8 261.541 185.8C262.207 185.8 262.541 186.467 262.541 187.8C262.541 189.267 260.941 191.8 257.741 195.4C252.007 201.8 245.007 205 236.741 205C235.407 205 234.207 204.933 233.141 204.8C232.074 204.533 231.274 204.333 230.741 204.2C230.207 203.933 229.874 203.8 229.741 203.8L228.741 204.4C221.274 213.467 214.407 221.4 208.141 228.2C201.874 234.867 197.407 239.333 194.741 241.6L190.941 244.8C188.807 246.4 187.141 247.2 185.941 247.2C184.341 247.2 183.541 245.933 183.541 243.4C183.541 234.6 187.007 220.533 193.941 201.2C201.007 181.733 206.074 169.533 209.141 164.6C213.407 157.8 218.674 154.4 224.941 154.4C225.874 154.4 226.341 154.867 226.341 155.8C226.341 156.467 225.807 157.867 224.741 160C213.141 184.133 205.941 204.733 203.141 221.8C203.141 223.267 203.407 224 203.941 224C204.474 224 205.274 223.533 206.341 222.6C212.074 218.467 218.541 211.267 225.741 201C226.007 200.6 226.141 200.133 226.141 199.6C225.607 198.4 225.341 196.8 225.341 194.8C225.341 186.8 229.341 177.933 237.341 168.2C245.474 158.333 253.674 151.867 261.941 148.8C262.741 148.533 263.274 148.4 263.541 148.4C264.341 148.4 264.741 148.733 264.741 149.4Z" fill="#004E08"/>
<path d="M183.8 103.4L176.507 110.242L176.53 110.266L176.552 110.29L183.8 103.4ZM191 182L200.064 186.223L200.074 186.204L200.083 186.184L191 182ZM169.2 214L161.93 207.134L169.2 214ZM136 237.6L131.751 228.548L136 237.6ZM87.6 246.4L88.6468 236.455L88.3868 236.428L88.1256 236.414L87.6 246.4ZM82.2 246L80.0307 255.762L80.4914 255.864L80.9597 255.923L82.2 246ZM80.4 245.6L77.9746 255.301L78.1023 255.333L78.2307 255.362L80.4 245.6ZM77.2 242.4L67.6217 239.527L67.2 240.932V242.4H77.2ZM77.8 240.4L68.5692 236.554L68.3703 237.031L68.2217 237.527L77.8 240.4ZM83.6 227.2L92.7111 231.322L92.7522 231.231L92.7915 231.139L83.6 227.2ZM100.6 194.2L91.8484 189.362L91.8333 189.389L91.8183 189.416L100.6 194.2ZM129.6 146.6L137.909 152.164L137.915 152.155L137.921 152.147L129.6 146.6ZM152.4 116.6L159.471 123.671L159.593 123.549L159.711 123.423L152.4 116.6ZM158.2 118L149.256 113.528L148.724 114.592L148.456 115.751L158.2 118ZM145.4 147.4L154.106 152.321L154.212 152.132L154.311 151.938L145.4 147.4ZM99.8 237L90.4064 233.571L90.3579 233.703L90.3132 233.838L99.8 237ZM101.2 240.6L102.844 230.736L102.643 230.703L102.44 230.677L101.2 240.6ZM141 223.8L134.293 216.383L134.273 216.401L134.254 216.419L141 223.8ZM172 181.4L181.014 185.73L181.021 185.716L181.027 185.702L172 181.4ZM174.6 104.8L166.951 111.241L166.979 111.275L167.007 111.308L174.6 104.8ZM134.6 98L128.253 90.2727L128.183 90.3295L128.115 90.3876L134.6 98ZM133.4 125.8L142.887 122.638L142.578 121.712L142.097 120.864L133.4 125.8ZM130.8 129.2L126.174 138.066L126.251 138.106L126.328 138.144L130.8 129.2ZM120.6 119.2L128.651 113.268L120.6 119.2ZM130.2 88.4L131.958 98.2443L132.127 98.214L132.295 98.178L130.2 88.4ZM142.6 87.2V97.2C157.684 97.2 168.589 101.803 176.507 110.242L183.8 103.4L191.093 96.5576C178.744 83.397 162.183 77.2 142.6 77.2V87.2ZM183.8 103.4L176.552 110.29C184.646 118.804 189.2 130.775 189.2 147.4H199.2H209.2C209.2 126.958 203.487 109.596 191.048 96.5101L183.8 103.4ZM199.2 147.4H189.2C189.2 156.934 186.88 167.044 181.917 177.816L191 182L200.083 186.184C206.054 173.222 209.2 160.266 209.2 147.4H199.2ZM191 182L181.936 177.777C176.931 188.519 170.276 198.297 161.93 207.134L169.2 214L176.47 220.866C186.258 210.503 194.136 198.948 200.064 186.223L191 182ZM169.2 214L161.93 207.134C153.801 215.741 143.788 222.897 131.751 228.548L136 237.6L140.249 246.652C154.345 240.036 166.465 231.459 176.47 220.866L169.2 214ZM136 237.6L131.751 228.548C119.971 234.077 107.885 236.8 95.4 236.8V246.8V256.8C110.915 256.8 125.895 253.39 140.249 246.652L136 237.6ZM95.4 246.8V236.8C93.0668 236.8 90.8167 236.683 88.6468 236.455L87.6 246.4L86.5532 256.345C89.45 256.65 92.3999 256.8 95.4 256.8V246.8ZM87.6 246.4L88.1256 236.414C85.5984 236.281 84.1162 236.162 83.4403 236.077L82.2 246L80.9597 255.923C82.4172 256.105 84.5349 256.253 87.0744 256.386L87.6 246.4ZM82.2 246L84.3693 236.238L82.5693 235.838L80.4 245.6L78.2307 255.362L80.0307 255.762L82.2 246ZM80.4 245.6L82.8254 235.899C82.8454 235.904 83.0911 235.965 83.4721 236.156C83.8597 236.35 84.4515 236.709 85.0711 237.329C86.5357 238.794 87.2 240.726 87.2 242.4H77.2H67.2C67.2 245.674 68.3976 248.94 70.9289 251.471C73.201 253.743 75.9055 254.784 77.9746 255.301L80.4 245.6ZM77.2 242.4L86.7783 245.273L87.3783 243.273L77.8 240.4L68.2217 237.527L67.6217 239.527L77.2 242.4ZM77.8 240.4L87.0308 244.246C88.3071 241.183 90.1928 236.888 92.7111 231.322L83.6 227.2L74.4889 223.078C71.9405 228.712 69.9596 233.217 68.5692 236.554L77.8 240.4ZM83.6 227.2L92.7915 231.139C94.9746 226.045 100.407 215.459 109.382 198.984L100.6 194.2L91.8183 189.416C82.9263 205.741 77.0254 217.155 74.4085 223.261L83.6 227.2ZM100.6 194.2L109.352 199.038C118.283 182.882 127.803 167.258 137.909 152.164L129.6 146.6L121.291 141.036C110.864 156.609 101.05 172.718 91.8484 189.362L100.6 194.2ZM129.6 146.6L137.921 152.147C147.48 137.808 154.621 128.521 159.471 123.671L152.4 116.6L145.329 109.529C138.979 115.879 130.92 126.592 121.279 141.053L129.6 146.6ZM152.4 116.6L159.711 123.423C160.336 122.754 160.567 122.626 160.413 122.726C160.316 122.789 159.998 122.987 159.473 123.179C158.941 123.373 158.092 123.6 157 123.6V113.6V103.6C153.691 103.6 151.085 104.932 149.487 105.974C147.8 107.074 146.331 108.446 145.089 109.777L152.4 116.6ZM157 113.6V123.6C155.77 123.6 154.211 123.324 152.651 122.432C151.088 121.539 150.047 120.326 149.412 119.239C148.815 118.215 148.588 117.329 148.496 116.859C148.402 116.372 148.4 116.057 148.4 116H158.4H168.4C168.4 114.555 168.247 111.834 166.688 109.161C164.645 105.66 160.989 103.6 157 103.6V113.6ZM158.4 116H148.4C148.4 116.37 148.386 116.436 148.4 116.305C148.406 116.237 148.433 115.988 148.509 115.63C148.549 115.444 148.614 115.174 148.718 114.849C148.818 114.535 148.985 114.069 149.256 113.528L158.2 118L167.144 122.472C168.101 120.56 168.259 118.705 168.3 118.295C168.38 117.497 168.4 116.696 168.4 116H158.4ZM158.2 118L148.456 115.751C147.579 119.553 143.923 128.264 136.489 142.862L145.4 147.4L154.311 151.938C161.544 137.736 166.421 126.847 167.944 120.249L158.2 118ZM145.4 147.4L136.694 142.479C112.471 185.337 96.8632 215.885 90.4064 233.571L99.8 237L109.194 240.429C115.003 224.515 129.796 195.33 154.106 152.321L145.4 147.4ZM99.8 237L90.3132 233.838C89.7636 235.486 89.6 237.063 89.6 238.4H99.6H109.6C109.6 238.67 109.57 239.314 109.287 240.162L99.8 237ZM99.6 238.4H89.6C89.6 240.231 89.9417 243.122 91.9126 245.832C94.1058 248.847 97.2359 250.182 99.9597 250.523L101.2 240.6L102.44 230.677C104.097 230.884 106.428 231.786 108.087 234.068C109.525 236.045 109.6 237.902 109.6 238.4H99.6ZM101.2 240.6L99.556 250.464C101.198 250.738 103.071 250.8 104.8 250.8V240.8V230.8C104.129 230.8 103.621 230.786 103.255 230.765C102.864 230.744 102.757 230.722 102.844 230.736L101.2 240.6ZM104.8 240.8V250.8C119.926 250.8 134.294 243.477 147.746 231.181L141 223.8L134.254 216.419C122.906 226.79 113.14 230.8 104.8 230.8V240.8ZM141 223.8L147.707 231.217C161.304 218.922 172.382 203.701 181.014 185.73L172 181.4L162.986 177.07C155.351 192.965 145.762 206.011 134.293 216.383L141 223.8ZM172 181.4L181.027 185.702C189.655 167.598 194.2 149.927 194.2 132.8H184.2H174.2C174.2 146.339 170.612 161.069 162.973 177.098L172 181.4ZM184.2 132.8H194.2C194.2 119.565 190.361 107.822 182.193 98.2921L174.6 104.8L167.007 111.308C171.639 116.711 174.2 123.635 174.2 132.8H184.2ZM174.6 104.8L182.249 98.3586C173.743 88.2582 162.148 83.4 148.6 83.4V93.4V103.4C156.918 103.4 162.657 106.142 166.951 111.241L174.6 104.8ZM148.6 93.4V83.4C141.072 83.4 134.053 85.5082 128.253 90.2727L134.6 98L140.947 105.727C142.614 104.358 144.928 103.4 148.6 103.4V93.4ZM134.6 98L128.115 90.3876C121.761 95.8005 119.2 103.37 119.2 111.4H129.2H139.2C139.2 107.697 140.239 106.333 141.085 105.612L134.6 98ZM129.2 111.4H119.2C119.2 118.134 121.232 124.621 124.703 130.736L133.4 125.8L142.097 120.864C139.968 117.113 139.2 113.999 139.2 111.4H129.2ZM133.4 125.8L123.913 128.962C123.858 128.798 123.8 128.532 123.8 128.2H133.8H143.8C143.8 126.268 143.475 124.402 142.887 122.638L133.4 125.8ZM133.8 128.2H123.8C123.8 127.772 123.83 125.627 125.5 123.4C127.576 120.632 130.56 119.8 132.6 119.8V129.8V139.8C135.44 139.8 139.024 138.702 141.5 135.4C143.57 132.639 143.8 129.695 143.8 128.2H133.8ZM132.6 129.8V119.8C133.309 119.8 133.87 119.886 134.224 119.957C134.588 120.03 134.858 120.112 135.012 120.163C135.302 120.26 135.407 120.323 135.272 120.256L130.8 129.2L126.328 138.144C127.206 138.583 129.652 139.8 132.6 139.8V129.8ZM130.8 129.2L135.426 120.334C134.405 119.802 132.105 117.956 128.651 113.268L120.6 119.2L112.549 125.132C116.562 130.578 121.061 135.398 126.174 138.066L130.8 129.2ZM120.6 119.2L128.651 113.268C125.984 109.65 125 106.419 125 103.4H115H105C105 111.314 107.749 118.617 112.549 125.132L120.6 119.2ZM115 103.4H125C125 102.028 125.326 101.579 126.007 101.04L119.8 93.2L113.593 85.3595C107.874 89.8872 105 96.2384 105 103.4H115ZM119.8 93.2L126.007 101.04C128.014 99.452 129.973 98.5987 131.958 98.2443L130.2 88.4L128.442 78.5557C122.96 79.5346 117.986 81.8814 113.593 85.3595L119.8 93.2ZM130.2 88.4L132.295 98.178C135.226 97.55 138.644 97.2 142.6 97.2V87.2V77.2C137.489 77.2 132.641 77.65 128.105 78.622L130.2 88.4ZM264.741 149.4L274.734 149.757L274.741 149.579V149.4H264.741ZM234.541 197.6L242.541 203.6L242.63 203.48L242.717 203.358L234.541 197.6ZM260.941 186L253.869 178.929L253.573 179.225L253.303 179.545L260.941 186ZM257.741 195.4L265.189 202.072L265.202 202.058L265.215 202.044L257.741 195.4ZM233.141 204.8L230.715 214.501L231.301 214.648L231.9 214.723L233.141 204.8ZM230.741 204.2L226.268 213.144L227.25 213.635L228.315 213.901L230.741 204.2ZM229.741 203.8V193.8H226.971L224.596 195.225L229.741 203.8ZM228.741 204.4L223.596 195.825L222.117 196.712L221.021 198.043L228.741 204.4ZM208.141 228.2L215.427 235.049L215.461 235.013L215.494 234.977L208.141 228.2ZM194.741 241.6L201.182 249.249L201.2 249.234L201.217 249.219L194.741 241.6ZM190.941 244.8L196.941 252.8L197.166 252.631L197.382 252.449L190.941 244.8ZM193.941 201.2L184.541 197.788L184.534 197.806L184.528 197.824L193.941 201.2ZM209.141 164.6L200.67 159.285L200.659 159.303L200.648 159.321L209.141 164.6ZM224.741 160L215.796 155.528L215.761 155.598L215.728 155.668L224.741 160ZM203.141 221.8L193.273 220.181L193.141 220.985V221.8H203.141ZM206.341 222.6L200.493 214.488L200.11 214.764L199.756 215.074L206.341 222.6ZM225.741 201L233.928 206.742L233.996 206.645L234.061 206.547L225.741 201ZM226.141 199.6H236.141V197.478L235.279 195.539L226.141 199.6ZM237.341 168.2L229.624 161.839L229.62 161.845L229.615 161.85L237.341 168.2ZM261.941 148.8L258.778 139.313L258.62 139.366L258.463 139.424L261.941 148.8ZM264.741 149.4L254.747 149.043C254.792 147.795 255.123 147.185 254.889 147.794C254.741 148.18 254.436 148.87 253.888 149.933C252.8 152.046 251.072 155.022 248.617 158.941C243.726 166.745 236.331 177.69 226.365 191.842L234.541 197.6L242.717 203.358C252.75 189.11 260.388 177.821 265.565 169.559C268.143 165.445 270.206 161.929 271.668 159.092C272.395 157.68 273.055 156.281 273.561 154.962C273.981 153.867 274.656 151.938 274.734 149.757L264.741 149.4ZM234.541 197.6L226.541 191.6C226.137 192.138 225.611 192.9 225.146 193.828C224.763 194.594 223.941 196.401 223.941 198.8H233.941H243.941C243.941 199.951 243.731 200.867 243.556 201.448C243.378 202.045 243.173 202.495 243.035 202.772C242.771 203.3 242.544 203.596 242.541 203.6L234.541 197.6ZM233.941 198.8H223.941C223.941 202.65 225.921 205.527 227.982 207.192C229.745 208.616 231.588 209.223 232.641 209.506C234.814 210.091 237.184 210.2 239.141 210.2V200.2V190.2C237.631 190.2 237.401 190.075 237.84 190.194C238.026 190.244 239.219 190.559 240.549 191.633C241.28 192.224 242.161 193.133 242.855 194.441C243.575 195.797 243.941 197.299 243.941 198.8H233.941ZM239.141 200.2V210.2C250.387 210.2 260.236 202.326 268.579 192.455L260.941 186L253.303 179.545C245.645 188.607 240.961 190.2 239.141 190.2V200.2ZM260.941 186L268.012 193.071C265.608 195.475 262.815 195.8 261.541 195.8V185.8V175.8C259.732 175.8 256.54 176.259 253.869 178.929L260.941 186ZM261.541 185.8V195.8C259.957 195.8 258.126 195.375 256.431 194.245C254.799 193.157 253.856 191.792 253.346 190.772C252.856 189.792 252.682 188.974 252.614 188.569C252.542 188.137 252.541 187.856 252.541 187.8H262.541H272.541C272.541 186.623 272.446 184.251 271.235 181.828C270.558 180.475 269.407 178.859 267.525 177.604C265.58 176.308 263.457 175.8 261.541 175.8V185.8ZM262.541 187.8H252.541C252.541 187.087 252.636 186.522 252.722 186.151C252.808 185.777 252.904 185.516 252.956 185.386C253.051 185.149 253.076 185.159 252.886 185.46C252.497 186.076 251.694 187.151 250.267 188.756L257.741 195.4L265.215 202.044C266.987 200.049 268.584 198.058 269.796 196.14C270.748 194.631 272.541 191.559 272.541 187.8H262.541ZM257.741 195.4L250.292 188.728C246.371 193.105 242.04 195 236.741 195V205V215C247.975 215 257.644 210.495 265.189 202.072L257.741 195.4ZM236.741 205V195C235.728 195 234.952 194.949 234.381 194.877L233.141 204.8L231.9 214.723C233.462 214.918 235.087 215 236.741 215V205ZM233.141 204.8L235.566 195.099C234.499 194.832 233.699 194.632 233.166 194.499L230.741 204.2L228.315 213.901C228.849 214.035 229.649 214.235 230.715 214.501L233.141 204.8ZM230.741 204.2L235.213 195.256C234.837 195.068 234.341 194.83 233.805 194.615C233.539 194.509 233.126 194.353 232.625 194.21C232.277 194.11 231.171 193.8 229.741 193.8V203.8V213.8C228.974 213.8 228.365 213.709 228.011 213.645C227.632 213.576 227.329 213.497 227.131 213.44C226.747 213.331 226.475 213.224 226.377 213.185C226.174 213.104 226.111 213.066 226.268 213.144L230.741 204.2ZM229.741 203.8L224.596 195.225L223.596 195.825L228.741 204.4L233.886 212.975L234.886 212.375L229.741 203.8ZM228.741 204.4L221.021 198.043C213.643 207.002 206.9 214.79 200.787 221.423L208.141 228.2L215.494 234.977C221.915 228.01 228.905 219.931 236.46 210.757L228.741 204.4ZM208.141 228.2L200.854 221.351C194.563 228.043 190.449 232.123 188.264 233.981L194.741 241.6L201.217 249.219C204.365 246.543 209.184 241.69 215.427 235.049L208.141 228.2ZM194.741 241.6L188.299 233.951L184.499 237.151L190.941 244.8L197.382 252.449L201.182 249.249L194.741 241.6ZM190.941 244.8L184.941 236.8C184.583 237.068 184.3 237.261 184.088 237.395C183.984 237.461 183.903 237.508 183.847 237.54C183.789 237.572 183.762 237.585 183.763 237.585C183.764 237.584 183.803 237.566 183.878 237.537C183.952 237.508 184.074 237.465 184.24 237.418C184.557 237.33 185.145 237.2 185.941 237.2V247.2V257.2C188.63 257.2 190.894 256.347 192.418 255.615C194.036 254.838 195.559 253.836 196.941 252.8L190.941 244.8ZM185.941 247.2V237.2C186.876 237.2 188.182 237.393 189.558 238.119C190.963 238.86 191.961 239.906 192.596 240.91C193.684 242.633 193.541 243.937 193.541 243.4H183.541H173.541C173.541 245.397 173.798 248.6 175.686 251.59C178.063 255.354 181.99 257.2 185.941 257.2V247.2ZM183.541 243.4H193.541C193.541 236.502 196.428 223.887 203.354 204.576L193.941 201.2L184.528 197.824C177.586 217.18 173.541 232.698 173.541 243.4H183.541ZM193.941 201.2L203.34 204.612C210.513 184.853 215.231 173.744 217.633 169.879L209.141 164.6L200.648 159.321C196.917 165.323 191.501 178.614 184.541 197.788L193.941 201.2ZM209.141 164.6L217.611 169.915C220.633 165.099 223.088 164.4 224.941 164.4V154.4V144.4C214.26 144.4 206.181 150.501 200.67 159.285L209.141 164.6ZM224.941 154.4V164.4C223.866 164.4 221.223 164.125 218.92 161.821C216.616 159.518 216.341 156.875 216.341 155.8H226.341H236.341C236.341 153.792 235.832 150.449 233.062 147.679C230.292 144.909 226.949 144.4 224.941 144.4V154.4ZM226.341 155.8H216.341C216.341 155.241 216.394 154.802 216.436 154.535C216.48 154.257 216.529 154.052 216.558 153.939C216.588 153.821 216.611 153.751 216.616 153.736C216.621 153.719 216.616 153.736 216.596 153.79C216.553 153.903 216.47 154.106 216.331 154.412C216.194 154.715 216.018 155.084 215.796 155.528L224.741 160L233.685 164.472C234.291 163.26 234.853 162.046 235.286 160.91C235.58 160.138 236.341 158.122 236.341 155.8H226.341ZM224.741 160L215.728 155.668C203.915 180.245 196.287 201.807 193.273 220.181L203.141 221.8L213.009 223.419C215.594 207.659 222.367 188.022 233.754 164.332L224.741 160ZM203.141 221.8H193.141C193.141 222.86 193.2 224.826 193.943 226.867C194.334 227.944 195.143 229.685 196.833 231.234C198.742 232.984 201.258 234 203.941 234V224V214C206.357 214 208.639 214.925 210.348 216.491C211.838 217.857 212.48 219.322 212.739 220.033C213.214 221.341 213.141 222.206 213.141 221.8H203.141ZM203.941 224V234C206.846 234 209.032 232.84 209.979 232.288C211.137 231.613 212.137 230.816 212.926 230.126L206.341 222.6L199.756 215.074C199.478 215.317 199.545 215.221 199.902 215.012C200.094 214.9 200.499 214.68 201.087 214.474C201.658 214.274 202.651 214 203.941 214V224ZM206.341 222.6L212.189 230.712C219.273 225.604 226.503 217.33 233.928 206.742L225.741 201L217.553 195.258C210.579 205.204 204.875 211.329 200.493 214.488L206.341 222.6ZM225.741 201L234.061 206.547C235.541 204.327 236.141 201.883 236.141 199.6H226.141H216.141C216.141 198.383 216.473 196.873 217.42 195.453L225.741 201ZM226.141 199.6L235.279 195.539C235.424 195.866 235.43 196.01 235.405 195.856C235.38 195.707 235.341 195.371 235.341 194.8H225.341H215.341C215.341 197.538 215.683 200.692 217.003 203.661L226.141 199.6ZM225.341 194.8H235.341C235.341 190.119 237.74 183.463 245.066 174.55L237.341 168.2L229.615 161.85C220.941 172.403 215.341 183.481 215.341 194.8H225.341ZM237.341 168.2L245.057 174.561C252.542 165.48 259.387 160.413 265.419 158.176L261.941 148.8L258.463 139.424C247.961 143.32 238.406 151.186 229.624 161.839L237.341 168.2ZM261.941 148.8L265.103 158.287C265.373 158.197 265.441 158.183 265.366 158.201C265.325 158.212 265.171 158.25 264.935 158.289C264.812 158.309 264.638 158.335 264.423 158.357C264.214 158.378 263.911 158.4 263.541 158.4V148.4V138.4C262.116 138.4 260.923 138.697 260.515 138.799C259.907 138.951 259.308 139.137 258.778 139.313L261.941 148.8ZM263.541 148.4V158.4C262.798 158.4 260.38 158.283 258.039 156.332C255.349 154.09 254.741 151.136 254.741 149.4H264.741H274.741C274.741 146.997 273.933 143.543 270.842 140.968C268.101 138.684 265.083 138.4 263.541 138.4V148.4Z" fill="#FFF700" mask="url(#path-2-outside-1_4_2)"/>
<path d="M39 245C48.5 327 289 145.5 275.5 305" stroke="#00FF00" stroke-width="4"/>
<path d="M277.897 224.065C266.327 225.844 262.16 238.37 262.16 238.37L265.983 235.71M277.897 224.065C275.194 236.231 263.156 239.536 263.156 239.536L265.979 235.704M262.926 218.082C266.839 220.742 267.545 227.386 267.545 227.386C264.966 229.497 262.966 232.316 261.8 235.482C260.165 229.57 258.886 223.678 262.926 218.082ZM247.568 228.336C250.249 234.466 254.358 239.665 259.548 243.493C260.942 234.664 257.502 229.224 247.568 228.336ZM260.665 244.086C269.358 248.465 279.629 247.012 279.669 246.963C274.512 239.358 268.199 238.283 260.665 244.086Z" fill="#00FF00"/>
<path d="M265.983 235.71L262.16 238.37C262.16 238.37 266.327 225.844 277.897 224.065C275.194 236.231 263.156 239.536 263.156 239.536L265.979 235.704M262.926 218.082C266.839 220.742 267.545 227.386 267.545 227.386C264.966 229.497 262.966 232.316 261.8 235.482C260.165 229.57 258.886 223.678 262.926 218.082ZM247.568 228.336C250.249 234.466 254.358 239.665 259.548 243.493C260.942 234.664 257.502 229.224 247.568 228.336ZM260.665 244.086C269.358 248.465 279.629 247.012 279.669 246.963C274.512 239.358 268.199 238.283 260.665 244.086Z" stroke="#00FF00" stroke-linecap="round" stroke-linejoin="round"/>
</svg>
