<svg width="118" height="33" viewBox="0 0 118 33" fill="none" xmlns="http://www.w3.org/2000/svg">
<path d="M9.81494 25.2637C10.5884 24.71 11.3047 23.8047 11.9639 22.5479C12.623 21.291 13.1416 19.8628 13.5195 18.2632C13.9062 16.6636 14.0996 15.0947 14.0996 13.5566C14.0996 11.1221 13.625 9.19287 12.6758 7.76904C12.6758 7.63721 12.8164 7.45264 13.0977 7.21533C13.3789 6.97803 13.6206 6.85938 13.8228 6.85938C14.772 6.85938 15.6729 7.05713 16.5254 7.45264C17.3867 7.83936 18.1338 8.37988 18.7666 9.07422C19.3994 9.76855 19.9004 10.6299 20.2695 11.6582C20.6475 12.6777 20.8364 13.75 20.8364 14.875C20.8364 16 20.6958 17.0547 20.4146 18.0391C20.1421 19.0234 19.707 19.9551 19.1094 20.834C18.5205 21.7129 17.7998 22.4819 16.9473 23.1411C16.1035 23.7915 15.0664 24.3101 13.8359 24.6968C12.6143 25.0747 11.2739 25.2637 9.81494 25.2637ZM7.85059 25.1055C6.33887 25.1055 4.34375 25.0527 1.86523 24.9473C3.05176 20.1748 3.90869 14.5454 4.43604 8.05908C4.43604 7.95361 4.57666 7.79102 4.85791 7.57129C5.14795 7.35156 5.39404 7.23291 5.59619 7.21533C8.21533 6.99561 10.2192 6.88574 11.6079 6.88574C10.3687 12.2295 9.50293 18.0083 9.01074 24.2222C9.01074 24.3452 8.87012 24.5254 8.58887 24.7627C8.30762 24.9912 8.06152 25.1055 7.85059 25.1055ZM35.8262 11.8955C37.0215 12.3086 37.9268 12.8887 38.542 13.6357C39.166 14.374 39.478 15.165 39.478 16.0088C39.478 17.1602 38.9814 18.1357 37.9883 18.9355C36.9951 19.7354 35.6416 20.1353 33.9277 20.1353C33.3916 20.1353 32.8027 20.0474 32.1611 19.8716C33.0928 19.2915 33.7212 18.5356 34.0464 17.604C34.3276 16.7954 34.4683 15.8462 34.4683 14.7563C34.4683 14.5454 34.4463 13.8994 34.4023 12.8184C34.3936 12.7041 34.5693 12.5239 34.9297 12.2778C35.2988 12.0317 35.5977 11.9043 35.8262 11.8955ZM33.6904 11.6846C32.6006 12.4229 31.7349 13.394 31.0933 14.5981C30.4604 15.8022 30.144 17.0898 30.144 18.4609C30.144 19.832 30.6714 20.9482 31.7261 21.8096C32.7808 22.6709 34.3188 23.1016 36.3403 23.1016C36.894 23.1016 37.4873 23.0532 38.1201 22.9565C37.707 23.6069 36.9116 24.1519 35.7339 24.5913C34.5562 25.022 33.3213 25.2373 32.0293 25.2373C30.7373 25.2373 29.6343 25.1099 28.7202 24.855C27.8062 24.5913 26.9888 24.2046 26.2681 23.6948C25.5562 23.1851 24.9937 22.5215 24.5806 21.7041C24.1675 20.8779 23.9609 19.9727 23.9609 18.9883C23.9609 17.9951 24.1147 17.0986 24.4224 16.2988C24.73 15.499 25.1519 14.8135 25.688 14.2422C26.2241 13.6709 26.8481 13.1787 27.5601 12.7656C28.9751 11.9658 30.6055 11.5659 32.4512 11.5659C32.9082 11.5659 33.3213 11.6055 33.6904 11.6846ZM52.1738 12.6865C52.1738 12.5723 52.3232 12.4009 52.6221 12.1724C52.9297 11.9351 53.189 11.8164 53.3999 11.8164H56.854C55.9399 13.1699 54.8193 14.9365 53.4922 17.1162C53.4219 17.2217 53.2109 17.3403 52.8594 17.4722C52.5166 17.604 52.2354 17.6699 52.0156 17.6699C52.2881 16.7031 52.4243 15.7715 52.4243 14.875C52.4243 13.9785 52.3408 13.249 52.1738 12.6865ZM45.0415 25C44.479 22.0205 43.332 17.9072 41.6006 12.6602C41.6006 12.5371 41.7456 12.3613 42.0356 12.1328C42.3345 11.9043 42.5938 11.79 42.8135 11.79H48.4692C48.6362 13.2402 48.8955 14.5981 49.2471 15.8638C49.8975 18.2544 50.5786 19.4497 51.2905 19.4497C51.6069 19.4497 51.8574 19.4146 52.042 19.3442C52.2354 19.2651 52.3496 19.2212 52.3848 19.2124C52.1123 19.7222 51.6816 20.667 51.0928 22.0469C50.5127 23.4268 50.2051 24.1562 50.1699 24.2354C50.1348 24.3057 49.9897 24.4507 49.7349 24.6704C49.48 24.8901 49.2515 25 49.0493 25H45.0415ZM72.8984 15.0464C72.5645 13.4116 72.1777 12.0537 71.7383 10.9727C71.2988 9.88281 70.666 8.86768 69.8398 7.92725C69.8574 7.76904 70.0068 7.58447 70.2881 7.37354C70.5693 7.1626 70.8066 7.05713 71 7.05713C72.5293 7.22412 73.9531 7.54053 75.2715 8.00635C75.2539 8.51611 75.144 9.46533 74.9419 10.854C74.7397 12.2427 74.542 13.3457 74.3486 14.1631C74.3135 14.3037 74.1157 14.4883 73.7554 14.7168C73.395 14.9365 73.1094 15.0464 72.8984 15.0464ZM74.1245 18.3423C73.9575 20.1616 73.6807 21.981 73.2939 23.8003C72.8018 24.2397 71.9932 24.5957 70.8682 24.8682C69.7432 25.1318 68.4556 25.2637 67.0054 25.2637C68.2798 24.3496 69.2993 23.4355 70.064 22.5215C70.8374 21.5986 71.6196 20.4561 72.4106 19.0938C72.604 18.9004 72.8809 18.729 73.2412 18.5796C73.6104 18.4214 73.9048 18.3423 74.1245 18.3423ZM66.188 24.3672C66.188 24.499 66.0474 24.6836 65.7661 24.9209C65.4849 25.1494 65.2388 25.2637 65.0278 25.2637C63.1382 24.9209 61.5342 24.0596 60.2158 22.6797C59.5742 22.0029 59.0645 21.1943 58.6865 20.2539C58.3174 19.3047 58.1328 18.2983 58.1328 17.2349C58.1328 16.1626 58.2646 15.1299 58.5283 14.1367C58.792 13.1348 59.2051 12.1855 59.7676 11.2891C60.3389 10.3838 61.0288 9.59277 61.8374 8.91602C63.5776 7.44824 65.8145 6.71436 68.5479 6.71436C68.7588 6.71436 68.9258 6.71875 69.0488 6.72754C67.7656 7.83496 66.7593 9.43457 66.0298 11.5264C65.3091 13.6094 64.9487 15.8638 64.9487 18.2896C64.9487 20.7065 65.3618 22.7324 66.188 24.3672ZM87.5059 11.4604C85.3965 13.4819 84.3418 16.2109 84.3418 19.6475C84.3418 21.1064 84.5352 22.5742 84.9219 24.0508C84.9131 24.1826 84.7681 24.3628 84.4868 24.5913C84.2144 24.8198 83.9814 24.9341 83.7881 24.9341C82.3115 24.7319 81.0327 24.1211 79.9517 23.1016C78.8179 22.0293 78.251 20.6934 78.251 19.0938C78.251 17.4854 78.6509 16.1143 79.4507 14.9805C80.2593 13.8379 81.3623 12.9678 82.7598 12.3701C84.1572 11.7637 85.7393 11.4604 87.5059 11.4604ZM85.7261 25.1187C87.8354 23.0972 88.8901 20.3682 88.8901 16.9316C88.8901 15.4727 88.6968 14.0049 88.3101 12.5283C88.3188 12.3965 88.4595 12.2163 88.7319 11.9878C89.0132 11.7593 89.2505 11.645 89.4438 11.645C90.9204 11.8472 92.1948 12.458 93.2671 13.4775C94.4097 14.5498 94.981 15.8901 94.981 17.4985C94.981 19.0981 94.5767 20.4692 93.7681 21.6118C92.9683 22.7456 91.8696 23.6157 90.4722 24.2222C89.0747 24.8198 87.4927 25.1187 85.7261 25.1187ZM103.537 25H98C98.9141 21.1504 99.5469 17.0854 99.8984 12.8052C99.8984 12.6997 100.039 12.5415 100.32 12.3306C100.602 12.1108 100.896 11.9746 101.204 11.9219C101.52 11.8691 102.285 11.7988 103.498 11.7109C104.719 11.6143 105.664 11.5659 106.332 11.5659C105.62 15.2485 105.071 19.4365 104.684 24.1299C104.684 24.2441 104.543 24.4199 104.262 24.6572C103.981 24.8857 103.739 25 103.537 25ZM108.296 25.1318C107.787 24.6396 107.532 24.0068 107.532 23.2334C107.532 22.46 107.725 20.9834 108.112 18.8037C108.507 16.624 108.705 15.2837 108.705 14.7827C108.705 14.2729 108.582 13.9082 108.336 13.6885C108.099 13.46 107.787 13.3457 107.4 13.3457C107.479 12.8184 107.628 12.4229 107.848 12.1592C108.173 12.001 108.683 11.856 109.377 11.7241C110.081 11.5923 110.731 11.5264 111.329 11.5264C112.498 11.5264 113.372 11.7944 113.952 12.3306C114.541 12.8667 114.835 13.7148 114.835 14.875C114.835 15.5254 114.695 16.668 114.414 18.3027C114.132 19.9375 113.992 20.9395 113.992 21.3086C113.992 21.6777 114.005 21.9546 114.031 22.1392C114.066 22.3237 114.093 22.4688 114.11 22.5742C114.137 22.6797 114.198 22.8027 114.295 22.9434C114.392 23.0752 114.453 23.1587 114.479 23.1938C114.506 23.2202 114.594 23.3081 114.743 23.4575C114.893 23.5981 114.98 23.6816 115.007 23.708C115.007 23.8311 114.879 24.0376 114.625 24.3276C114.37 24.6089 114.137 24.7935 113.926 24.8813C112.801 25.0483 110.924 25.1318 108.296 25.1318Z" fill="#0F6201"/>
</svg>
