<svg width="215" height="30" viewBox="0 0 215 30" fill="none" xmlns="http://www.w3.org/2000/svg">
<path d="M11.3508 29.3027C12.2389 28.667 13.0613 27.6276 13.8181 26.1846C14.575 24.7415 15.1703 23.1017 15.6042 21.2651C16.0483 19.4285 16.2703 17.6273 16.2703 15.8613C16.2703 13.0661 15.7253 10.8511 14.6355 9.21631C14.6355 9.06494 14.797 8.85303 15.1199 8.58057C15.4428 8.30811 15.7203 8.17188 15.9524 8.17188C17.0422 8.17188 18.0766 8.39893 19.0554 8.85303C20.0444 9.29704 20.9021 9.91764 21.6287 10.7148C22.3552 11.512 22.9304 12.501 23.3542 13.6816C23.7882 14.8522 24.0051 16.0833 24.0051 17.375C24.0051 18.6667 23.8437 19.8776 23.5208 21.0078C23.2079 22.138 22.7084 23.2077 22.0222 24.2168C21.3461 25.2259 20.5186 26.1089 19.5398 26.8657C18.571 27.6125 17.3803 28.2078 15.9675 28.6519C14.5649 29.0858 13.026 29.3027 11.3508 29.3027ZM9.09546 29.1211C7.35978 29.1211 5.06909 29.0605 2.22339 28.9395C3.58569 23.46 4.56958 16.9966 5.17505 9.54932C5.17505 9.42822 5.33651 9.24154 5.65942 8.98926C5.99243 8.73698 6.27498 8.60075 6.50708 8.58057C9.51424 8.32829 11.815 8.20215 13.4094 8.20215C11.9866 14.3376 10.9926 20.9725 10.4275 28.1069C10.4275 28.2482 10.266 28.4551 9.94312 28.7275C9.6202 28.9899 9.33765 29.1211 9.09546 29.1211ZM41.2156 13.9541C42.588 14.4284 43.6274 15.0944 44.3337 15.9521C45.0502 16.7998 45.4084 17.708 45.4084 18.6768C45.4084 19.9987 44.8383 21.1188 43.698 22.0371C42.5577 22.9554 41.0037 23.4146 39.0359 23.4146C38.4203 23.4146 37.7442 23.3136 37.0076 23.1118C38.0772 22.4458 38.7987 21.578 39.1721 20.5083C39.495 19.5799 39.6565 18.4901 39.6565 17.2388C39.6565 16.9966 39.6313 16.2549 39.5808 15.0137C39.5707 14.8825 39.7725 14.6756 40.1863 14.3931C40.6101 14.1105 40.9532 13.9642 41.2156 13.9541ZM38.7634 13.7119C37.5121 14.5596 36.5181 15.6746 35.7815 17.0571C35.0549 18.4396 34.6917 19.918 34.6917 21.4922C34.6917 23.0664 35.2971 24.348 36.5081 25.3369C37.719 26.3258 39.4849 26.8203 41.8059 26.8203C42.4417 26.8203 43.1228 26.7648 43.8494 26.6538C43.3751 27.4006 42.4618 28.0262 41.1096 28.5308C39.7574 29.0252 38.3396 29.2725 36.8562 29.2725C35.3728 29.2725 34.1064 29.1261 33.0569 28.8335C32.0074 28.5308 31.0689 28.0868 30.2415 27.5015C29.4241 26.9162 28.7782 26.1543 28.304 25.2158C27.8297 24.2673 27.5925 23.2279 27.5925 22.0977C27.5925 20.9574 27.7691 19.9281 28.1223 19.0098C28.4755 18.0915 28.9599 17.3044 29.5754 16.6484C30.191 15.9925 30.9075 15.4274 31.7249 14.9531C33.3495 14.0348 35.2214 13.5757 37.3406 13.5757C37.8653 13.5757 38.3396 13.6211 38.7634 13.7119ZM59.9851 14.8623C59.9851 14.7311 60.1567 14.5343 60.4998 14.272C60.8529 13.9995 61.1506 13.8633 61.3928 13.8633H65.3586C64.3092 15.4173 63.0225 17.4456 61.4988 19.9482C61.4181 20.0693 61.1759 20.2056 60.7722 20.3569C60.3787 20.5083 60.0557 20.584 59.8035 20.584C60.1163 19.474 60.2727 18.4043 60.2727 17.375C60.2727 16.3457 60.1768 15.5081 59.9851 14.8623ZM51.7961 29C51.1503 25.5791 49.8334 20.8564 47.8455 14.832C47.8455 14.6908 48.012 14.4889 48.345 14.2266C48.6881 13.9642 48.9858 13.833 49.238 13.833H55.7317C55.9234 15.498 56.2211 17.0571 56.6248 18.5103C57.3715 21.255 58.1536 22.6274 58.9709 22.6274C59.3342 22.6274 59.6218 22.5871 59.8337 22.5063C60.0557 22.4155 60.1869 22.3651 60.2273 22.355C59.9145 22.9403 59.42 24.0251 58.7439 25.6094C58.0779 27.1937 57.7247 28.0312 57.6843 28.1221C57.644 28.2028 57.4775 28.3693 57.1848 28.6216C56.8922 28.8739 56.6298 29 56.3977 29H51.7961ZM83.78 17.5718C83.3966 15.6948 82.9526 14.1357 82.448 12.8945C81.9434 11.6432 81.2169 10.4777 80.2683 9.39795C80.2885 9.21631 80.46 9.00439 80.783 8.76221C81.1059 8.52002 81.3783 8.39893 81.6003 8.39893C83.3562 8.59066 84.991 8.95394 86.5046 9.48877C86.4845 10.0741 86.3583 11.1639 86.1262 12.7583C85.8941 14.3527 85.6671 15.6191 85.4451 16.5576C85.4047 16.7191 85.1777 16.931 84.7639 17.1934C84.3502 17.4456 84.0222 17.5718 83.78 17.5718ZM85.1877 21.356C84.996 23.4448 84.6781 25.5337 84.2341 27.6226C83.669 28.1271 82.7406 28.5358 81.449 28.8486C80.1573 29.1514 78.679 29.3027 77.0139 29.3027C78.4771 28.2533 79.6477 27.2038 80.5256 26.1543C81.4137 25.0947 82.3118 23.7829 83.22 22.2188C83.442 21.9967 83.7598 21.8 84.1736 21.6284C84.5974 21.4468 84.9355 21.356 85.1877 21.356ZM76.0754 28.2734C76.0754 28.4248 75.914 28.6367 75.5911 28.9092C75.2681 29.1715 74.9856 29.3027 74.7434 29.3027C72.5738 28.9092 70.7322 27.9202 69.2185 26.3359C68.4819 25.5589 67.8966 24.6305 67.4626 23.5508C67.0388 22.4609 66.8269 21.3055 66.8269 20.0845C66.8269 18.8534 66.9783 17.6676 67.281 16.5273C67.5837 15.377 68.058 14.2871 68.7039 13.2578C69.3598 12.2184 70.1519 11.3102 71.0803 10.5332C73.0784 8.84798 75.6466 8.00537 78.7849 8.00537C79.0271 8.00537 79.2188 8.01042 79.3601 8.02051C77.8868 9.29199 76.7314 11.1286 75.8938 13.5303C75.0663 15.9219 74.6526 18.5103 74.6526 21.2954C74.6526 24.0705 75.1269 26.3965 76.0754 28.2734ZM100.552 13.4546C98.1296 15.7756 96.9187 18.9089 96.9187 22.8545C96.9187 24.5296 97.1407 26.2148 97.5847 27.9102C97.5746 28.0615 97.4081 28.2684 97.0852 28.5308C96.7724 28.7931 96.505 28.9243 96.283 28.9243C94.5876 28.6922 93.1194 27.9909 91.8782 26.8203C90.5764 25.5892 89.9255 24.0553 89.9255 22.2188C89.9255 20.3721 90.3847 18.7979 91.303 17.4961C92.2314 16.1842 93.4978 15.1852 95.1023 14.499C96.7068 13.8027 98.5232 13.4546 100.552 13.4546ZM98.5081 29.1362C100.93 26.8153 102.141 23.682 102.141 19.7363C102.141 18.0612 101.919 16.376 101.475 14.6807C101.485 14.5293 101.646 14.3224 101.959 14.0601C102.282 13.7977 102.555 13.6665 102.777 13.6665C104.472 13.8986 105.935 14.5999 107.166 15.7705C108.478 17.0016 109.134 18.5405 109.134 20.3872C109.134 22.2238 108.67 23.798 107.741 25.1099C106.823 26.4116 105.562 27.4106 103.957 28.1069C102.353 28.7931 100.536 29.1362 98.5081 29.1362ZM118.958 29H112.6C113.65 24.5801 114.376 19.9129 114.78 14.9985C114.78 14.8774 114.941 14.6958 115.264 14.4536C115.587 14.2013 115.925 14.0449 116.279 13.9844C116.642 13.9238 117.52 13.8431 118.912 13.7422C120.315 13.6312 121.4 13.5757 122.167 13.5757C121.349 17.8039 120.719 22.6123 120.275 28.001C120.275 28.1322 120.113 28.334 119.79 28.6064C119.467 28.8688 119.19 29 118.958 29ZM124.422 29.1514C123.837 28.5863 123.544 27.8597 123.544 26.9717C123.544 26.0837 123.766 24.3883 124.21 21.8857C124.664 19.3831 124.891 17.8442 124.891 17.269C124.891 16.6838 124.75 16.265 124.468 16.0127C124.195 15.7503 123.837 15.6191 123.393 15.6191C123.484 15.0137 123.655 14.5596 123.907 14.2568C124.281 14.0752 124.866 13.9087 125.663 13.7573C126.471 13.606 127.217 13.5303 127.904 13.5303C129.246 13.5303 130.25 13.8381 130.916 14.4536C131.592 15.0692 131.93 16.043 131.93 17.375C131.93 18.1217 131.768 19.4336 131.446 21.3105C131.123 23.1875 130.961 24.3379 130.961 24.7617C130.961 25.1855 130.976 25.5034 131.007 25.7153C131.047 25.9272 131.077 26.0938 131.097 26.2148C131.128 26.3359 131.198 26.4772 131.309 26.6387C131.42 26.79 131.491 26.8859 131.521 26.9263C131.552 26.9565 131.652 27.0575 131.824 27.229C131.996 27.3905 132.096 27.4863 132.127 27.5166C132.127 27.6579 131.98 27.895 131.688 28.228C131.395 28.5509 131.128 28.7629 130.885 28.8638C129.594 29.0555 127.439 29.1514 124.422 29.1514ZM142.208 29H135.85C136.9 24.5801 137.626 19.9129 138.03 14.9985C138.03 14.8774 138.191 14.6958 138.514 14.4536C138.837 14.2013 139.175 14.0449 139.529 13.9844C139.892 13.9238 140.77 13.8431 142.162 13.7422C143.565 13.6312 144.65 13.5757 145.417 13.5757C144.599 17.8039 143.969 22.6123 143.525 28.001C143.525 28.1322 143.363 28.334 143.04 28.6064C142.717 28.8688 142.44 29 142.208 29ZM147.672 29.1514C147.087 28.5863 146.794 27.8597 146.794 26.9717C146.794 26.0837 147.016 24.3883 147.46 21.8857C147.914 19.3831 148.141 17.8442 148.141 17.269C148.141 16.6838 148 16.265 147.718 16.0127C147.445 15.7503 147.087 15.6191 146.643 15.6191C146.734 15.0137 146.905 14.5596 147.157 14.2568C147.531 14.0752 148.116 13.9087 148.913 13.7573C149.721 13.606 150.467 13.5303 151.154 13.5303C152.496 13.5303 153.5 13.8381 154.166 14.4536C154.842 15.0692 155.18 16.043 155.18 17.375C155.18 18.1217 155.018 19.4336 154.696 21.3105C154.373 23.1875 154.211 24.3379 154.211 24.7617C154.211 25.1855 154.226 25.5034 154.257 25.7153C154.297 25.9272 154.327 26.0938 154.347 26.2148C154.378 26.3359 154.448 26.4772 154.559 26.6387C154.67 26.79 154.741 26.8859 154.771 26.9263C154.802 26.9565 154.902 27.0575 155.074 27.229C155.246 27.3905 155.346 27.4863 155.377 27.5166C155.377 27.6579 155.23 27.895 154.938 28.228C154.645 28.5509 154.378 28.7629 154.135 28.8638C152.844 29.0555 150.689 29.1514 147.672 29.1514ZM172.996 13.9541C174.368 14.4284 175.408 15.0944 176.114 15.9521C176.83 16.7998 177.189 17.708 177.189 18.6768C177.189 19.9987 176.619 21.1188 175.478 22.0371C174.338 22.9554 172.784 23.4146 170.816 23.4146C170.201 23.4146 169.524 23.3136 168.788 23.1118C169.858 22.4458 170.579 21.578 170.952 20.5083C171.275 19.5799 171.437 18.4901 171.437 17.2388C171.437 16.9966 171.412 16.2549 171.361 15.0137C171.351 14.8825 171.553 14.6756 171.967 14.3931C172.39 14.1105 172.733 13.9642 172.996 13.9541ZM170.544 13.7119C169.292 14.5596 168.298 15.6746 167.562 17.0571C166.835 18.4396 166.472 19.918 166.472 21.4922C166.472 23.0664 167.077 24.348 168.288 25.3369C169.499 26.3258 171.265 26.8203 173.586 26.8203C174.222 26.8203 174.903 26.7648 175.63 26.6538C175.155 27.4006 174.242 28.0262 172.89 28.5308C171.538 29.0252 170.12 29.2725 168.636 29.2725C167.153 29.2725 165.887 29.1261 164.837 28.8335C163.788 28.5308 162.849 28.0868 162.022 27.5015C161.204 26.9162 160.559 26.1543 160.084 25.2158C159.61 24.2673 159.373 23.2279 159.373 22.0977C159.373 20.9574 159.549 19.9281 159.903 19.0098C160.256 18.0915 160.74 17.3044 161.356 16.6484C161.971 15.9925 162.688 15.4274 163.505 14.9531C165.13 14.0348 167.002 13.5757 169.121 13.5757C169.646 13.5757 170.12 13.6211 170.544 13.7119ZM194.066 14.0298C195.227 14.272 196.155 14.7967 196.851 15.604C197.558 16.4113 197.911 17.2236 197.911 18.041C197.911 18.8483 197.553 19.4487 196.836 19.8423C196.12 20.2257 195.403 20.4175 194.687 20.4175C193.97 20.4175 193.254 20.2812 192.537 20.0088C192.608 19.0602 192.643 18.1974 192.643 17.4204C192.643 16.6333 192.578 15.8311 192.447 15.0137C192.477 14.7917 192.679 14.5747 193.052 14.3628C193.435 14.1408 193.774 14.0298 194.066 14.0298ZM191.508 13.6211C190.459 14.4284 189.586 15.5233 188.889 16.9058C188.203 18.2882 187.86 19.6051 187.86 20.8564C187.86 22.1077 188.011 23.1068 188.314 23.8535C188.617 24.6003 189.046 25.2007 189.601 25.6548C190.701 26.5529 192.129 27.002 193.885 27.002C194.773 27.002 195.721 26.8859 196.73 26.6538C195.893 27.6528 194.873 28.339 193.673 28.7124C192.472 29.0858 190.983 29.2725 189.207 29.2725C187.431 29.2725 185.897 29.005 184.606 28.4702C183.324 27.9354 182.295 27.113 181.518 26.0029C180.741 24.8929 180.352 23.5407 180.352 21.9463C180.352 20.3418 180.766 18.8786 181.594 17.5566C182.421 16.2246 183.526 15.2004 184.908 14.4839C186.291 13.7674 187.815 13.4092 189.48 13.4092C190.015 13.4092 190.691 13.4798 191.508 13.6211ZM212.79 28.0767C210.722 28.7427 208.658 29.0757 206.599 29.0757C202.634 29.0757 200.651 27.4964 200.651 24.3379C200.651 23.6517 200.797 22.2843 201.09 20.2358C201.382 18.1772 201.529 16.7594 201.529 15.9824C201.529 15.1953 201.493 14.5949 201.423 14.1812C202.805 13.5656 204.021 12.8693 205.071 12.0923C206.12 11.3153 207.139 10.3617 208.128 9.23145C208.633 9.08008 209.289 9.00439 210.096 9.00439C209.42 11.3859 208.88 13.833 208.476 16.3457C208.083 18.8584 207.886 20.7152 207.886 21.916C207.886 23.1068 207.972 23.9696 208.143 24.5044C208.315 25.0291 208.592 25.4378 208.976 25.7305C209.652 26.2451 210.722 26.5024 212.185 26.5024C212.538 26.5024 212.911 26.4873 213.305 26.457C213.214 27.123 213.043 27.6629 212.79 28.0767ZM210.141 17.5566C210.232 16.154 210.459 14.8522 210.823 13.6514C211.811 14.0651 212.916 14.3577 214.137 14.5293C214.218 14.6807 214.294 14.9329 214.365 15.2861C214.435 15.6292 214.47 15.9017 214.47 16.1035C213.068 16.487 211.625 16.9714 210.141 17.5566Z" fill="#0F6201"/>
</svg>
