<svg width="436" height="58" viewBox="0 0 436 58" fill="none" xmlns="http://www.w3.org/2000/svg">
<path d="M22.2197 57.5957C23.9671 56.3447 25.5854 54.2995 27.0747 51.46C28.564 48.6204 29.7355 45.3937 30.5894 41.7798C31.4631 38.1659 31.8999 34.6214 31.8999 31.1465C31.8999 25.6462 30.8276 21.2876 28.6831 18.0708C28.6831 17.7729 29.0008 17.356 29.6362 16.8198C30.2716 16.2837 30.8177 16.0156 31.2744 16.0156C33.4189 16.0156 35.4543 16.4624 37.3804 17.356C39.3263 18.2297 41.0142 19.4508 42.4438 21.0195C43.8735 22.5882 45.0054 24.5342 45.8394 26.8574C46.6932 29.1608 47.1201 31.5833 47.1201 34.125C47.1201 36.6667 46.8024 39.0495 46.167 41.2734C45.5514 43.4974 44.5685 45.6022 43.2183 47.5879C41.8879 49.5736 40.2596 51.311 38.3335 52.8003C36.4272 54.2697 34.0841 55.4412 31.3042 56.3149C28.5441 57.1688 25.516 57.5957 22.2197 57.5957ZM17.7817 57.2383C14.3664 57.2383 9.85889 57.1191 4.25928 56.8809C6.93994 46.0986 8.87598 33.3804 10.0674 18.7261C10.0674 18.4878 10.3851 18.1204 11.0205 17.624C11.6758 17.1276 12.2318 16.8595 12.6885 16.8198C18.6058 16.3234 23.1331 16.0752 26.2705 16.0752C23.4707 28.1481 21.5148 41.2039 20.4028 55.2427C20.4028 55.5207 20.0851 55.9277 19.4497 56.4639C18.8143 56.9801 18.2583 57.2383 17.7817 57.2383ZM80.9858 27.3936C83.6864 28.3268 85.7316 29.6374 87.1216 31.3252C88.5314 32.9932 89.2363 34.7803 89.2363 36.6865C89.2363 39.2878 88.1144 41.4919 85.8706 43.2988C83.6268 45.1058 80.5688 46.0093 76.6968 46.0093C75.4855 46.0093 74.1551 45.8107 72.7056 45.4136C74.8104 44.103 76.2301 42.3953 76.9648 40.2905C77.6003 38.4637 77.918 36.3192 77.918 33.8569C77.918 33.3804 77.8683 31.9209 77.769 29.4785C77.7492 29.2204 78.1463 28.8133 78.9604 28.2573C79.7944 27.7013 80.4696 27.4134 80.9858 27.3936ZM76.1606 26.917C73.6984 28.585 71.7425 30.7791 70.293 33.4995C68.8633 36.2199 68.1484 39.1289 68.1484 42.2266C68.1484 45.3242 69.3398 47.846 71.7227 49.792C74.1055 51.738 77.5804 52.7109 82.1475 52.7109C83.3984 52.7109 84.7388 52.6017 86.1685 52.3833C85.2352 53.8527 83.4382 55.0838 80.7773 56.0767C78.1165 57.0496 75.3267 57.5361 72.4077 57.5361C69.4888 57.5361 66.9967 57.2482 64.9316 56.6724C62.8665 56.0767 61.0199 55.203 59.3916 54.0513C57.7832 52.8996 56.5124 51.4004 55.5791 49.5537C54.6458 47.6872 54.1792 45.6419 54.1792 43.418C54.1792 41.1742 54.5267 39.1488 55.2217 37.3418C55.9167 35.5348 56.8698 33.986 58.0811 32.6953C59.2923 31.4046 60.7021 30.2926 62.3105 29.3594C65.5075 27.5524 69.1909 26.6489 73.3608 26.6489C74.3934 26.6489 75.3267 26.7383 76.1606 26.917ZM117.919 29.1807C117.919 28.9225 118.257 28.5353 118.932 28.019C119.627 27.4829 120.213 27.2148 120.689 27.2148H128.493C126.428 30.2728 123.896 34.264 120.898 39.1885C120.739 39.4268 120.263 39.6948 119.468 39.9927C118.694 40.2905 118.058 40.4395 117.562 40.4395C118.178 38.2552 118.485 36.1504 118.485 34.125C118.485 32.0996 118.297 30.4515 117.919 29.1807ZM101.806 57C100.535 50.2686 97.9435 40.9756 94.0317 29.1211C94.0317 28.8431 94.3594 28.446 95.0146 27.9297C95.6898 27.4134 96.2756 27.1553 96.772 27.1553H109.55C109.927 30.4316 110.513 33.4995 111.307 36.3589C112.777 41.7599 114.315 44.4604 115.924 44.4604C116.639 44.4604 117.205 44.381 117.622 44.2222C118.058 44.0435 118.317 43.9442 118.396 43.9243C117.78 45.076 116.807 47.2106 115.477 50.3281C114.167 53.4456 113.472 55.0938 113.392 55.2725C113.313 55.4313 112.985 55.759 112.409 56.2554C111.833 56.7518 111.317 57 110.86 57H101.806ZM164.742 34.5122C163.987 30.8188 163.113 27.751 162.121 25.3086C161.128 22.8464 159.698 20.5529 157.832 18.4282C157.871 18.0708 158.209 17.6538 158.844 17.1772C159.48 16.7007 160.016 16.4624 160.453 16.4624C163.908 16.8397 167.125 17.5545 170.103 18.6069C170.063 19.7586 169.815 21.9032 169.358 25.0405C168.902 28.1779 168.455 30.6699 168.018 32.5166C167.939 32.8343 167.492 33.2513 166.678 33.7676C165.864 34.264 165.218 34.5122 164.742 34.5122ZM167.512 41.9585C167.134 46.0688 166.509 50.1792 165.635 54.2896C164.523 55.2824 162.696 56.0866 160.155 56.7021C157.613 57.2979 154.704 57.5957 151.428 57.5957C154.307 55.5306 156.61 53.4655 158.338 51.4004C160.085 49.3154 161.853 46.734 163.64 43.6562C164.076 43.2194 164.702 42.8322 165.516 42.4946C166.35 42.1372 167.015 41.9585 167.512 41.9585ZM149.581 55.5703C149.581 55.8682 149.263 56.2852 148.628 56.8213C147.993 57.3376 147.437 57.5957 146.96 57.5957C142.691 56.8213 139.067 54.8753 136.088 51.7578C134.639 50.2288 133.487 48.402 132.633 46.2773C131.799 44.1328 131.382 41.8592 131.382 39.4565C131.382 37.034 131.68 34.7008 132.276 32.457C132.872 30.1934 133.805 28.0488 135.076 26.0234C136.366 23.9782 137.925 22.1911 139.752 20.6621C143.684 17.346 148.737 15.688 154.913 15.688C155.389 15.688 155.766 15.6979 156.044 15.7178C153.145 18.2197 150.872 21.8337 149.224 26.5596C147.595 31.2656 146.781 36.3589 146.781 41.8394C146.781 47.3 147.715 51.877 149.581 55.5703ZM197.744 26.4106C192.978 30.9777 190.595 37.1432 190.595 44.9072C190.595 48.2035 191.032 51.5195 191.906 54.8555C191.886 55.1533 191.558 55.5604 190.923 56.0767C190.307 56.5929 189.781 56.8511 189.344 56.8511C186.008 56.3944 183.119 55.0143 180.677 52.7109C178.115 50.2884 176.834 47.2702 176.834 43.6562C176.834 40.0225 177.738 36.9248 179.545 34.3633C181.372 31.7819 183.864 29.8161 187.021 28.4658C190.178 27.0957 193.752 26.4106 197.744 26.4106ZM193.723 57.2681C198.488 52.701 200.871 46.5355 200.871 38.7715C200.871 35.4753 200.434 32.1592 199.561 28.8232C199.58 28.5254 199.898 28.1183 200.514 27.6021C201.149 27.0858 201.685 26.8276 202.122 26.8276C205.458 27.2843 208.337 28.6644 210.76 30.9678C213.341 33.3903 214.632 36.4185 214.632 40.0522C214.632 43.6662 213.718 46.7638 211.892 49.3452C210.085 51.9067 207.603 53.8726 204.445 55.2427C201.288 56.5929 197.714 57.2681 193.723 57.2681ZM233.962 57H221.453C223.518 48.3027 224.947 39.119 225.742 29.4487C225.742 29.2104 226.059 28.853 226.695 28.3765C227.33 27.88 227.995 27.5723 228.69 27.4531C229.405 27.334 231.133 27.1751 233.873 26.9766C236.633 26.7581 238.768 26.6489 240.277 26.6489C238.668 34.9689 237.427 44.4307 236.554 55.0342C236.554 55.2923 236.236 55.6895 235.601 56.2256C234.965 56.7419 234.419 57 233.962 57ZM244.715 57.2979C243.563 56.1859 242.987 54.7562 242.987 53.0088C242.987 51.2614 243.424 47.9255 244.298 43.001C245.191 38.0765 245.638 35.0483 245.638 33.9165C245.638 32.7648 245.36 31.9408 244.804 31.4443C244.268 30.9281 243.563 30.6699 242.689 30.6699C242.868 29.4785 243.206 28.585 243.702 27.9893C244.437 27.6318 245.589 27.3042 247.157 27.0063C248.746 26.7085 250.215 26.5596 251.565 26.5596C254.206 26.5596 256.182 27.1652 257.493 28.3765C258.823 29.5877 259.488 31.5039 259.488 34.125C259.488 35.5944 259.171 38.1758 258.535 41.8691C257.9 45.5625 257.582 47.8262 257.582 48.6602C257.582 49.4941 257.612 50.1196 257.671 50.5366C257.751 50.9536 257.81 51.2812 257.85 51.5195C257.91 51.7578 258.049 52.0358 258.267 52.3535C258.486 52.6514 258.625 52.84 258.684 52.9194C258.744 52.979 258.942 53.1776 259.28 53.5151C259.617 53.8328 259.816 54.0215 259.875 54.0811C259.875 54.359 259.588 54.8257 259.012 55.481C258.436 56.1164 257.91 56.5334 257.433 56.7319C254.891 57.1092 250.652 57.2979 244.715 57.2979ZM279.712 57H267.203C269.268 48.3027 270.697 39.119 271.492 29.4487C271.492 29.2104 271.809 28.853 272.445 28.3765C273.08 27.88 273.745 27.5723 274.44 27.4531C275.155 27.334 276.883 27.1751 279.623 26.9766C282.383 26.7581 284.518 26.6489 286.027 26.6489C284.418 34.9689 283.177 44.4307 282.304 55.0342C282.304 55.2923 281.986 55.6895 281.351 56.2256C280.715 56.7419 280.169 57 279.712 57ZM290.465 57.2979C289.313 56.1859 288.737 54.7562 288.737 53.0088C288.737 51.2614 289.174 47.9255 290.048 43.001C290.941 38.0765 291.388 35.0483 291.388 33.9165C291.388 32.7648 291.11 31.9408 290.554 31.4443C290.018 30.9281 289.313 30.6699 288.439 30.6699C288.618 29.4785 288.956 28.585 289.452 27.9893C290.187 27.6318 291.339 27.3042 292.907 27.0063C294.496 26.7085 295.965 26.5596 297.315 26.5596C299.956 26.5596 301.932 27.1652 303.243 28.3765C304.573 29.5877 305.238 31.5039 305.238 34.125C305.238 35.5944 304.921 38.1758 304.285 41.8691C303.65 45.5625 303.332 47.8262 303.332 48.6602C303.332 49.4941 303.362 50.1196 303.421 50.5366C303.501 50.9536 303.56 51.2812 303.6 51.5195C303.66 51.7578 303.799 52.0358 304.017 52.3535C304.236 52.6514 304.375 52.84 304.434 52.9194C304.494 52.979 304.692 53.1776 305.03 53.5151C305.367 53.8328 305.566 54.0215 305.625 54.0811C305.625 54.359 305.338 54.8257 304.762 55.481C304.186 56.1164 303.66 56.5334 303.183 56.7319C300.641 57.1092 296.402 57.2979 290.465 57.2979ZM340.295 27.3936C342.996 28.3268 345.041 29.6374 346.431 31.3252C347.841 32.9932 348.546 34.7803 348.546 36.6865C348.546 39.2878 347.424 41.4919 345.18 43.2988C342.936 45.1058 339.878 46.0093 336.006 46.0093C334.795 46.0093 333.465 45.8107 332.015 45.4136C334.12 44.103 335.54 42.3953 336.274 40.2905C336.91 38.4637 337.228 36.3192 337.228 33.8569C337.228 33.3804 337.178 31.9209 337.079 29.4785C337.059 29.2204 337.456 28.8133 338.27 28.2573C339.104 27.7013 339.779 27.4134 340.295 27.3936ZM335.47 26.917C333.008 28.585 331.052 30.7791 329.603 33.4995C328.173 36.2199 327.458 39.1289 327.458 42.2266C327.458 45.3242 328.649 47.846 331.032 49.792C333.415 51.738 336.89 52.7109 341.457 52.7109C342.708 52.7109 344.048 52.6017 345.478 52.3833C344.545 53.8527 342.748 55.0838 340.087 56.0767C337.426 57.0496 334.636 57.5361 331.717 57.5361C328.798 57.5361 326.306 57.2482 324.241 56.6724C322.176 56.0767 320.329 55.203 318.701 54.0513C317.093 52.8996 315.822 51.4004 314.889 49.5537C313.955 47.6872 313.489 45.6419 313.489 43.418C313.489 41.1742 313.836 39.1488 314.531 37.3418C315.226 35.5348 316.179 33.986 317.391 32.6953C318.602 31.4046 320.012 30.2926 321.62 29.3594C324.817 27.5524 328.5 26.6489 332.67 26.6489C333.703 26.6489 334.636 26.7383 335.47 26.917ZM381.756 27.5425C384.04 28.019 385.867 29.0516 387.237 30.6401C388.627 32.2287 389.322 33.8271 389.322 35.4355C389.322 37.0241 388.617 38.2056 387.207 38.98C385.797 39.7345 384.387 40.1118 382.978 40.1118C381.568 40.1118 380.158 39.8438 378.748 39.3076C378.887 37.4411 378.957 35.7433 378.957 34.2144C378.957 32.6655 378.827 31.0869 378.569 29.4785C378.629 29.0417 379.026 28.6147 379.761 28.1978C380.515 27.7609 381.181 27.5425 381.756 27.5425ZM376.723 26.7383C374.658 28.3268 372.94 30.4813 371.57 33.2017C370.22 35.922 369.544 38.5133 369.544 40.9756C369.544 43.4378 369.842 45.4036 370.438 46.873C371.034 48.3424 371.878 49.5239 372.97 50.4175C375.134 52.1847 377.944 53.0684 381.399 53.0684C383.146 53.0684 385.013 52.84 386.999 52.3833C385.35 54.3491 383.345 55.6994 380.982 56.4341C378.619 57.1688 375.69 57.5361 372.195 57.5361C368.701 57.5361 365.682 57.0099 363.141 55.9575C360.619 54.9051 358.593 53.2868 357.064 51.1025C355.535 48.9183 354.771 46.2575 354.771 43.1201C354.771 39.9629 355.585 37.0837 357.213 34.4824C358.842 31.8613 361.016 29.8459 363.736 28.436C366.457 27.0262 369.455 26.3213 372.731 26.3213C373.784 26.3213 375.114 26.4603 376.723 26.7383ZM418.601 55.1831C414.53 56.4937 410.469 57.1489 406.418 57.1489C398.615 57.1489 394.713 54.0413 394.713 47.8262C394.713 46.4759 395.001 43.7853 395.577 39.7544C396.153 35.7036 396.44 32.9137 396.44 31.3848C396.44 29.8359 396.371 28.6545 396.232 27.8403C398.952 26.6291 401.345 25.259 403.41 23.73C405.475 22.201 407.481 20.3245 409.427 18.1006C410.42 17.8027 411.71 17.6538 413.299 17.6538C411.968 22.34 410.906 27.1553 410.112 32.0996C409.337 37.0439 408.95 40.6976 408.95 43.0605C408.95 45.4036 409.119 47.1014 409.457 48.1538C409.794 49.1864 410.34 49.9906 411.095 50.5664C412.425 51.5791 414.53 52.0854 417.409 52.0854C418.104 52.0854 418.839 52.0557 419.613 51.9961C419.435 53.3066 419.097 54.369 418.601 55.1831ZM413.388 34.4824C413.567 31.7223 414.014 29.1608 414.729 26.7979C416.674 27.612 418.849 28.1878 421.251 28.5254C421.41 28.8232 421.559 29.3197 421.698 30.0146C421.837 30.6898 421.907 31.2259 421.907 31.623C419.147 32.3776 416.307 33.3307 413.388 34.4824Z" fill="#0F6201"/>
</svg>
