<svg width="45" height="45" viewBox="0 0 45 45" fill="none" xmlns="http://www.w3.org/2000/svg">
<path d="M9.375 39.375C8.34375 39.375 7.46125 39.0081 6.7275 38.2744C5.99375 37.5406 5.62625 36.6575 5.625 35.625V9.375C5.625 8.34375 5.9925 7.46125 6.7275 6.7275C7.4625 5.99375 8.345 5.62625 9.375 5.625H35.625C36.6563 5.625 37.5394 5.9925 38.2744 6.7275C39.0094 7.4625 39.3762 8.345 39.375 9.375V35.625C39.375 36.6563 39.0081 37.5394 38.2744 38.2744C37.5406 39.0094 36.6575 39.3762 35.625 39.375H9.375ZM20.625 28.125H9.375V35.625H20.625V28.125ZM24.375 28.125V35.625H35.625V28.125H24.375ZM20.625 24.375V16.875H9.375V24.375H20.625ZM24.375 24.375H35.625V16.875H24.375V24.375ZM9.375 13.125H35.625V9.375H9.375V13.125Z" fill="#0F6201"/>
</svg>
